G04 #@! TF.GenerationSoftware,KiCad,Pcbnew,9.0.7*
G04 #@! TF.CreationDate,2026-04-11T15:30:24+09:00*
G04 #@! TF.ProjectId,jjy_sim_r3,6a6a795f-7369-46d5-9f72-332e6b696361,rev?*
G04 #@! TF.SameCoordinates,Original*
G04 #@! TF.FileFunction,Copper,L2,Bot*
G04 #@! TF.FilePolarity,Positive*
%FSLAX46Y46*%
G04 Gerber Fmt 4.6, Leading zero omitted, Abs format (unit mm)*
G04 Created by KiCad (PCBNEW 9.0.7) date 2026-04-11 15:30:24*
%MOMM*%
%LPD*%
G01*
G04 APERTURE LIST*
G04 #@! TA.AperFunction,Conductor*
%ADD10C,0.200000*%
G04 #@! TD*
G04 #@! TA.AperFunction,ComponentPad*
%ADD11C,1.700000*%
G04 #@! TD*
G04 #@! TA.AperFunction,ComponentPad*
%ADD12C,1.500000*%
G04 #@! TD*
G04 #@! TA.AperFunction,ComponentPad*
%ADD13O,2.100000X1.000000*%
G04 #@! TD*
G04 #@! TA.AperFunction,ComponentPad*
%ADD14O,1.800000X1.000000*%
G04 #@! TD*
G04 #@! TA.AperFunction,ViaPad*
%ADD15C,0.800000*%
G04 #@! TD*
%ADD16C,0.150000*%
%ADD17C,0.100000*%
G04 APERTURE END LIST*
D10*
X125000000Y-57600000D02*
G75*
G02*
X125000000Y-89600000I0J-16000000D01*
G01*
X125000000Y-88400000D02*
G75*
G02*
X125000000Y-58400000I0J15000000D01*
G01*
X125000000Y-55600000D02*
G75*
G02*
X125000000Y-91600000I0J-18000000D01*
G01*
X125000000Y-84400000D02*
G75*
G02*
X125000000Y-62400000I0J11000000D01*
G01*
X125000000Y-53600000D02*
G75*
G02*
X125000000Y-93600000I0J-20000000D01*
G01*
X125000000Y-86000000D02*
G75*
G02*
X125000000Y-60800000I0J12600000D01*
G01*
X125000000Y-56400000D02*
G75*
G02*
X125000000Y-90800000I0J-17200000D01*
G01*
X125000000Y-94400000D02*
G75*
G02*
X125000000Y-52400000I0J21000000D01*
G01*
X125000000Y-86400000D02*
G75*
G02*
X125000000Y-60400000I0J13000000D01*
G01*
X125000000Y-56800000D02*
G75*
G02*
X125000000Y-90400000I0J-16800000D01*
G01*
X125000000Y-95200000D02*
G75*
G02*
X125000000Y-51600000I0J21800000D01*
G01*
X125000000Y-58000000D02*
G75*
G02*
X125000000Y-89200000I0J-15600000D01*
G01*
X125000000Y-88000000D02*
G75*
G02*
X125000000Y-58800000I0J14600000D01*
G01*
X125000000Y-90400000D02*
G75*
G02*
X125000000Y-56400000I0J17000000D01*
G01*
X125000000Y-58800000D02*
G75*
G02*
X125000000Y-88400000I0J-14800000D01*
G01*
X125000000Y-94000000D02*
G75*
G02*
X125000000Y-52800000I0J20600000D01*
G01*
X125000000Y-60800000D02*
G75*
G02*
X125000000Y-86400000I0J-12800000D01*
G01*
X125000000Y-92000000D02*
G75*
G02*
X125000000Y-54800000I0J18600000D01*
G01*
X125000000Y-51200000D02*
G75*
G02*
X125000000Y-96000000I0J-22400000D01*
G01*
X125000000Y-91200000D02*
G75*
G02*
X125000000Y-55600000I0J17800000D01*
G01*
X125000000Y-90800000D02*
G75*
G02*
X125000000Y-56000000I0J17400000D01*
G01*
X125000000Y-85200000D02*
G75*
G02*
X125000000Y-61600000I0J11800000D01*
G01*
X125000000Y-53200000D02*
G75*
G02*
X125000000Y-94000000I0J-20400000D01*
G01*
X125000000Y-54800000D02*
G75*
G02*
X125000000Y-92400000I0J-18800000D01*
G01*
X125000000Y-93600000D02*
G75*
G02*
X125000000Y-53200000I0J20200000D01*
G01*
X125000000Y-56000000D02*
G75*
G02*
X125000000Y-91200000I0J-17600000D01*
G01*
X125000000Y-57200000D02*
G75*
G02*
X125000000Y-90000000I0J-16400000D01*
G01*
X125000000Y-89200000D02*
G75*
G02*
X125000000Y-57600000I0J15800000D01*
G01*
X125000000Y-90000000D02*
G75*
G02*
X125000000Y-56800000I0J16600000D01*
G01*
X125000000Y-85600000D02*
G75*
G02*
X125000000Y-61200000I0J12200000D01*
G01*
X125000000Y-50800000D02*
G75*
G02*
X126275800Y-96364278I0J-22800000D01*
G01*
X125000000Y-52000000D02*
G75*
G02*
X125000000Y-95200000I0J-21600000D01*
G01*
X125000000Y-60000000D02*
G75*
G02*
X125000000Y-87200000I0J-13600000D01*
G01*
X125000000Y-94800000D02*
G75*
G02*
X125000000Y-52000000I0J21400000D01*
G01*
X125000000Y-62000000D02*
G75*
G02*
X125000000Y-85200000I0J-11600000D01*
G01*
X125000000Y-59600000D02*
G75*
G02*
X125000000Y-87600000I0J-14000000D01*
G01*
X125000000Y-95600000D02*
G75*
G02*
X125000000Y-51200000I0J22200000D01*
G01*
X125000000Y-93200000D02*
G75*
G02*
X125000000Y-53600000I0J19800000D01*
G01*
X125000000Y-60400000D02*
G75*
G02*
X125000000Y-86800000I0J-13200000D01*
G01*
X125000000Y-52800000D02*
G75*
G02*
X125000000Y-94400000I0J-20800000D01*
G01*
X125000000Y-54000000D02*
G75*
G02*
X125000000Y-93200000I0J-19600000D01*
G01*
X125000000Y-51600000D02*
G75*
G02*
X125000000Y-95600000I0J-22000000D01*
G01*
X125000000Y-88800000D02*
G75*
G02*
X125000000Y-58000000I0J15400000D01*
G01*
X125000000Y-87600000D02*
G75*
G02*
X125000000Y-59200000I0J14200000D01*
G01*
X125000000Y-59200000D02*
G75*
G02*
X125000000Y-88000000I0J-14400000D01*
G01*
X125000000Y-52400000D02*
G75*
G02*
X125000000Y-94800000I0J-21200000D01*
G01*
X125000000Y-91600000D02*
G75*
G02*
X125000000Y-55200000I0J18200000D01*
G01*
X125000000Y-92400000D02*
G75*
G02*
X125000000Y-54400000I0J19000000D01*
G01*
X125000000Y-58400000D02*
G75*
G02*
X125000000Y-88800000I0J-15200000D01*
G01*
X125000000Y-61600000D02*
G75*
G02*
X125000000Y-85600000I0J-12000000D01*
G01*
X125000000Y-86800000D02*
G75*
G02*
X125000000Y-60000000I0J13400000D01*
G01*
X125000000Y-92800000D02*
G75*
G02*
X125000000Y-54000000I0J19400000D01*
G01*
X125000000Y-55200000D02*
G75*
G02*
X125000000Y-92000000I0J-18400000D01*
G01*
X125000000Y-54400000D02*
G75*
G02*
X125000000Y-92800000I0J-19200000D01*
G01*
X125000000Y-96000000D02*
G75*
G02*
X125000000Y-50800000I0J22600000D01*
G01*
X125000000Y-84800000D02*
G75*
G02*
X125000000Y-62000000I0J11400000D01*
G01*
X125000000Y-61200000D02*
G75*
G02*
X125000000Y-86000000I0J-12400000D01*
G01*
X125000000Y-62400000D02*
G75*
G02*
X125000000Y-84800000I0J-11200000D01*
G01*
X125000000Y-87200000D02*
G75*
G02*
X125000000Y-59600000I0J13800000D01*
G01*
X125000000Y-89600000D02*
G75*
G02*
X125000000Y-57200000I0J16200000D01*
G01*
D11*
X123740000Y-101625000D03*
X123740000Y-97815000D03*
X126280000Y-101625000D03*
X126280000Y-97815000D03*
D12*
X142800000Y-147600000D03*
X137600000Y-147600000D03*
X140200000Y-147600000D03*
D13*
X106900000Y-130900000D03*
D14*
X102720000Y-130900000D03*
D13*
X106900000Y-139540000D03*
D14*
X102720000Y-139540000D03*
D15*
X119000000Y-131000000D03*
X132000000Y-121000000D03*
X105000000Y-106000000D03*
X129000000Y-125000000D03*
X125000000Y-146000000D03*
X114200000Y-116050000D03*
X113000000Y-101000000D03*
X139050000Y-123250000D03*
X115000000Y-146000000D03*
X139000000Y-117170000D03*
X130000000Y-103000000D03*
X113000000Y-131000000D03*
X142500000Y-121000000D03*
X135000000Y-146000000D03*
X122700000Y-138700000D03*
X131000000Y-111000000D03*
X131300000Y-131000000D03*
X113000000Y-140000000D03*
X116500000Y-121500000D03*
X109700000Y-121400000D03*
X122000000Y-121500000D03*
X113000000Y-106000000D03*
X142500000Y-112000000D03*
X125000000Y-131000000D03*
X113000000Y-126000000D03*
X103400000Y-135400000D03*
X134000000Y-117170000D03*
X134850000Y-103050000D03*
X113700000Y-108700000D03*
X141300000Y-106100000D03*
X140600000Y-131800000D03*
X128682900Y-136100000D03*
X136798998Y-110663948D03*
X136807531Y-111689923D03*
X128650000Y-137750000D03*
X134000000Y-122119000D03*
X126300000Y-122150000D03*
X125000000Y-84100000D03*
X137930025Y-127619975D03*
X110150000Y-113150000D03*
X134079601Y-109420399D03*
X133392951Y-130400000D03*
X124325000Y-144375000D03*
X135225000Y-109400000D03*
X122000000Y-123000000D03*
X132600000Y-112400000D03*
X105200000Y-123400000D03*
X106319051Y-135270002D03*
X106302097Y-136269859D03*
X103600000Y-123400000D03*
X141300000Y-126200000D03*
X106109997Y-127305960D03*
X135050000Y-127400000D03*
X135150000Y-126250000D03*
X107000000Y-126850000D03*
X106200000Y-110000000D03*
X132300000Y-126449000D03*
X133455025Y-126850000D03*
X105200000Y-110000000D03*
D10*
X140599000Y-126490364D02*
X140899000Y-126790364D01*
X141300000Y-108700000D02*
X141300000Y-125208636D01*
X140599000Y-125909636D02*
X140599000Y-126490364D01*
X141300000Y-106100000D02*
X141300000Y-108700000D01*
X140899000Y-126790364D02*
X140899000Y-131501000D01*
X141300000Y-125208636D02*
X140599000Y-125909636D01*
X140899000Y-131501000D02*
X140600000Y-131800000D01*
X113700000Y-108700000D02*
X141300000Y-108700000D01*
X136798998Y-110663948D02*
X136100000Y-111362946D01*
X136399000Y-128383900D02*
X128682900Y-136100000D01*
X136100000Y-111362946D02*
X136100000Y-111973756D01*
X136399000Y-112272756D02*
X136399000Y-128383900D01*
X136100000Y-111973756D02*
X136399000Y-112272756D01*
X136800000Y-111697454D02*
X136800000Y-128550000D01*
X129383900Y-136416100D02*
X128650000Y-137150000D01*
X136807531Y-111689923D02*
X136800000Y-111697454D01*
X129383900Y-135966100D02*
X129383900Y-136416100D01*
X128650000Y-137150000D02*
X128650000Y-137750000D01*
X136800000Y-128550000D02*
X129383900Y-135966100D01*
X134000000Y-122119000D02*
X126331000Y-122119000D01*
X126331000Y-122119000D02*
X126300000Y-122150000D01*
X126265000Y-96375078D02*
X126265000Y-97800000D01*
X125000000Y-84100000D02*
X125000000Y-84400000D01*
X126270000Y-96370078D02*
X126265000Y-96375078D01*
X137930025Y-127619975D02*
X137927677Y-127619975D01*
X137600000Y-127947652D02*
X137600000Y-147600000D01*
X137927677Y-127619975D02*
X137600000Y-127947652D01*
X133815800Y-130400000D02*
X135998000Y-128217800D01*
X117199000Y-109101000D02*
X133760203Y-109101000D01*
X135998000Y-128217800D02*
X135998000Y-112438856D01*
X135700000Y-111040797D02*
X134079601Y-109420399D01*
X135699000Y-111196846D02*
X135700000Y-111195846D01*
X133760203Y-109101000D02*
X134079601Y-109420399D01*
X133392951Y-130400000D02*
X133815800Y-130400000D01*
X135699000Y-112139856D02*
X135699000Y-111196846D01*
X135700000Y-111195846D02*
X135700000Y-111040797D01*
X113150000Y-113150000D02*
X117199000Y-109101000D01*
X135998000Y-112438856D02*
X135699000Y-112139856D01*
X110150000Y-113150000D02*
X113150000Y-113150000D01*
X137201000Y-127882314D02*
X137201000Y-112287818D01*
X136000000Y-144700000D02*
X137200000Y-143500000D01*
X137200000Y-127883314D02*
X137201000Y-127882314D01*
X137508531Y-111980287D02*
X137508531Y-110382117D01*
X137087948Y-109962948D02*
X136525000Y-109400000D01*
X137089362Y-109962948D02*
X137087948Y-109962948D01*
X137201000Y-112287818D02*
X137508531Y-111980287D01*
X124650000Y-144700000D02*
X136000000Y-144700000D01*
X136525000Y-109400000D02*
X135225000Y-109400000D01*
X137200000Y-143500000D02*
X137200000Y-127883314D01*
X124325000Y-144375000D02*
X124650000Y-144700000D01*
X137508531Y-110382117D02*
X137089362Y-109962948D01*
X132600000Y-112400000D02*
X122000000Y-123000000D01*
X105201000Y-124433900D02*
X105201000Y-134601662D01*
X105200000Y-123400000D02*
X105200000Y-124432900D01*
X105201000Y-134601662D02*
X105869340Y-135270002D01*
X105200000Y-124432900D02*
X105201000Y-124433900D01*
X105869340Y-135270002D02*
X106319051Y-135270002D01*
X106319051Y-135270002D02*
X106319055Y-135270002D01*
X104800000Y-124600000D02*
X103600000Y-123400000D01*
X106309144Y-136269859D02*
X106302097Y-136269859D01*
X106302097Y-136269859D02*
X104800000Y-134767762D01*
X104800000Y-134767762D02*
X104800000Y-124600000D01*
X141300000Y-139750000D02*
X140200000Y-140850000D01*
X140200000Y-140850000D02*
X140200000Y-147600000D01*
X141300000Y-126200000D02*
X141300000Y-139750000D01*
X106709636Y-127551000D02*
X107133900Y-127551000D01*
X106109997Y-127305960D02*
X106464596Y-127305960D01*
X134567100Y-127400000D02*
X135050000Y-127400000D01*
X107533900Y-127951000D02*
X134016100Y-127951000D01*
X107133900Y-127551000D02*
X107533900Y-127951000D01*
X106464596Y-127305960D02*
X106709636Y-127551000D01*
X134016100Y-127951000D02*
X134567100Y-127400000D01*
X107700000Y-127550000D02*
X133850000Y-127550000D01*
X133850000Y-127550000D02*
X135150000Y-126250000D01*
X107000000Y-126850000D02*
X107700000Y-127550000D01*
X132300000Y-126449000D02*
X132001000Y-126748000D01*
X119435100Y-126748000D02*
X106198621Y-113511521D01*
X106200000Y-113510142D02*
X106198621Y-113511521D01*
X132001000Y-126748000D02*
X119435100Y-126748000D01*
X106200000Y-110000000D02*
X106200000Y-113510142D01*
X132591364Y-127149000D02*
X132590364Y-127150000D01*
X119269000Y-127149000D02*
X105797621Y-113677621D01*
X133455025Y-126850000D02*
X133156025Y-127149000D01*
X105797621Y-110592923D02*
X105792923Y-110592923D01*
X133156025Y-127149000D02*
X132591364Y-127149000D01*
X105797621Y-113677621D02*
X105797621Y-110592923D01*
X132590364Y-127150000D02*
X132009636Y-127150000D01*
X105792923Y-110592923D02*
X105200000Y-110000000D01*
X132008636Y-127149000D02*
X119269000Y-127149000D01*
X132009636Y-127150000D02*
X132008636Y-127149000D01*
G04 #@! TA.AperFunction,Conductor*
G36*
X105342689Y-100003109D02*
G01*
X105440785Y-100025499D01*
X105440790Y-100025500D01*
X122761178Y-100025500D01*
X122830918Y-100005022D01*
X122865851Y-100000000D01*
X124534149Y-100000000D01*
X124569081Y-100005022D01*
X124606852Y-100016113D01*
X124638821Y-100025500D01*
X124638822Y-100025500D01*
X125361178Y-100025500D01*
X125430918Y-100005022D01*
X125465851Y-100000000D01*
X127134149Y-100000000D01*
X127169081Y-100005022D01*
X127206852Y-100016113D01*
X127238821Y-100025500D01*
X143676000Y-100025500D01*
X143743039Y-100045185D01*
X143788794Y-100097989D01*
X143800000Y-100149500D01*
X143800000Y-132000000D01*
X149938181Y-138138181D01*
X149971666Y-138199504D01*
X149974500Y-138225862D01*
X149974500Y-146996753D01*
X149974330Y-147003243D01*
X149958544Y-147304433D01*
X149957187Y-147317340D01*
X149910517Y-147612010D01*
X149907819Y-147624706D01*
X149830600Y-147912892D01*
X149826589Y-147925237D01*
X149719670Y-148203770D01*
X149714391Y-148215627D01*
X149578941Y-148481464D01*
X149572455Y-148492697D01*
X149499850Y-148604500D01*
X149409962Y-148742914D01*
X149402333Y-148753414D01*
X149214570Y-148985282D01*
X149205885Y-148994927D01*
X148994927Y-149205885D01*
X148985282Y-149214570D01*
X148753414Y-149402333D01*
X148742914Y-149409962D01*
X148492697Y-149572455D01*
X148481464Y-149578941D01*
X148215627Y-149714391D01*
X148203770Y-149719670D01*
X147925237Y-149826589D01*
X147912892Y-149830600D01*
X147624706Y-149907819D01*
X147612010Y-149910517D01*
X147317340Y-149957187D01*
X147304433Y-149958544D01*
X147003244Y-149974330D01*
X146996754Y-149974500D01*
X103003246Y-149974500D01*
X102996756Y-149974330D01*
X102695566Y-149958544D01*
X102682659Y-149957187D01*
X102387989Y-149910517D01*
X102375293Y-149907819D01*
X102087107Y-149830600D01*
X102074762Y-149826589D01*
X101796229Y-149719670D01*
X101784372Y-149714391D01*
X101755029Y-149699440D01*
X101518529Y-149578937D01*
X101507310Y-149572460D01*
X101257079Y-149409958D01*
X101246585Y-149402333D01*
X101014717Y-149214570D01*
X101005072Y-149205885D01*
X100794114Y-148994927D01*
X100785429Y-148985282D01*
X100597666Y-148753414D01*
X100590044Y-148742923D01*
X100427535Y-148492683D01*
X100421065Y-148481477D01*
X100285603Y-148215617D01*
X100280334Y-148203781D01*
X100173407Y-147925228D01*
X100169402Y-147912901D01*
X100092176Y-147624690D01*
X100089484Y-147612022D01*
X100042812Y-147317340D01*
X100041455Y-147304433D01*
X100025670Y-147003243D01*
X100025500Y-146996753D01*
X100025500Y-146878711D01*
X101149500Y-146878711D01*
X101149500Y-147121288D01*
X101181161Y-147361785D01*
X101243947Y-147596104D01*
X101286542Y-147698937D01*
X101336776Y-147820212D01*
X101458064Y-148030289D01*
X101458066Y-148030292D01*
X101458067Y-148030293D01*
X101605733Y-148222736D01*
X101605739Y-148222743D01*
X101777256Y-148394260D01*
X101777262Y-148394265D01*
X101969711Y-148541936D01*
X102179788Y-148663224D01*
X102403900Y-148756054D01*
X102638211Y-148818838D01*
X102818586Y-148842584D01*
X102878711Y-148850500D01*
X102878712Y-148850500D01*
X103121289Y-148850500D01*
X103169388Y-148844167D01*
X103361789Y-148818838D01*
X103596100Y-148756054D01*
X103820212Y-148663224D01*
X103854068Y-148643677D01*
X142109873Y-148643677D01*
X142109873Y-148643678D01*
X142144858Y-148669096D01*
X142320164Y-148758418D01*
X142507294Y-148819221D01*
X142701618Y-148850000D01*
X142898382Y-148850000D01*
X143092705Y-148819221D01*
X143279835Y-148758418D01*
X143455143Y-148669095D01*
X143490125Y-148643678D01*
X143490126Y-148643678D01*
X142800001Y-147953553D01*
X142800000Y-147953553D01*
X142109873Y-148643677D01*
X103854068Y-148643677D01*
X104030289Y-148541936D01*
X104222738Y-148394265D01*
X104394265Y-148222738D01*
X104541936Y-148030289D01*
X104663224Y-147820212D01*
X104756054Y-147596100D01*
X104818838Y-147361789D01*
X104850500Y-147121288D01*
X104850500Y-146878712D01*
X104818838Y-146638211D01*
X104756054Y-146403900D01*
X104663224Y-146179788D01*
X104541936Y-145969711D01*
X104481018Y-145890321D01*
X104394266Y-145777263D01*
X104394260Y-145777256D01*
X104307695Y-145690691D01*
X116549500Y-145690691D01*
X116549500Y-145809309D01*
X116580201Y-145923886D01*
X116639511Y-146026613D01*
X116723387Y-146110489D01*
X116826114Y-146169799D01*
X116940691Y-146200500D01*
X116940694Y-146200500D01*
X117059306Y-146200500D01*
X117059309Y-146200500D01*
X117173886Y-146169799D01*
X117276613Y-146110489D01*
X117360489Y-146026613D01*
X117419799Y-145923886D01*
X117450500Y-145809309D01*
X117450500Y-145690691D01*
X132549500Y-145690691D01*
X132549500Y-145809309D01*
X132580201Y-145923886D01*
X132639511Y-146026613D01*
X132723387Y-146110489D01*
X132826114Y-146169799D01*
X132940691Y-146200500D01*
X132940694Y-146200500D01*
X133059306Y-146200500D01*
X133059309Y-146200500D01*
X133173886Y-146169799D01*
X133276613Y-146110489D01*
X133360489Y-146026613D01*
X133419799Y-145923886D01*
X133450500Y-145809309D01*
X133450500Y-145690691D01*
X133419799Y-145576114D01*
X133360489Y-145473387D01*
X133276613Y-145389511D01*
X133173886Y-145330201D01*
X133059309Y-145299500D01*
X132940691Y-145299500D01*
X132826114Y-145330201D01*
X132826112Y-145330201D01*
X132826112Y-145330202D01*
X132723387Y-145389511D01*
X132723384Y-145389513D01*
X132639513Y-145473384D01*
X132639511Y-145473387D01*
X132580201Y-145576114D01*
X132549500Y-145690691D01*
X117450500Y-145690691D01*
X117419799Y-145576114D01*
X117360489Y-145473387D01*
X117276613Y-145389511D01*
X117173886Y-145330201D01*
X117059309Y-145299500D01*
X116940691Y-145299500D01*
X116826114Y-145330201D01*
X116826112Y-145330201D01*
X116826112Y-145330202D01*
X116723387Y-145389511D01*
X116723384Y-145389513D01*
X116639513Y-145473384D01*
X116639511Y-145473387D01*
X116580201Y-145576114D01*
X116549500Y-145690691D01*
X104307695Y-145690691D01*
X104222743Y-145605739D01*
X104222736Y-145605733D01*
X104030293Y-145458067D01*
X104030292Y-145458066D01*
X104030289Y-145458064D01*
X103820212Y-145336776D01*
X103804339Y-145330201D01*
X103596104Y-145243947D01*
X103361785Y-145181161D01*
X103121289Y-145149500D01*
X103121288Y-145149500D01*
X102878712Y-145149500D01*
X102878711Y-145149500D01*
X102638214Y-145181161D01*
X102403895Y-145243947D01*
X102179794Y-145336773D01*
X102179785Y-145336777D01*
X101969706Y-145458067D01*
X101777263Y-145605733D01*
X101777256Y-145605739D01*
X101605739Y-145777256D01*
X101605733Y-145777263D01*
X101458067Y-145969706D01*
X101336777Y-146179785D01*
X101336773Y-146179794D01*
X101243947Y-146403895D01*
X101181161Y-146638214D01*
X101149500Y-146878711D01*
X100025500Y-146878711D01*
X100025500Y-139290000D01*
X101350138Y-139290000D01*
X102153012Y-139290000D01*
X102135795Y-139299940D01*
X102079940Y-139355795D01*
X102040444Y-139424204D01*
X102020000Y-139500504D01*
X102020000Y-139579496D01*
X102040444Y-139655796D01*
X102079940Y-139724205D01*
X102135795Y-139780060D01*
X102153012Y-139790000D01*
X101350138Y-139790000D01*
X101358430Y-139831690D01*
X101358430Y-139831692D01*
X101433807Y-140013671D01*
X101433814Y-140013684D01*
X101543248Y-140177462D01*
X101543251Y-140177466D01*
X101682533Y-140316748D01*
X101682537Y-140316751D01*
X101846315Y-140426185D01*
X101846328Y-140426192D01*
X102028306Y-140501569D01*
X102028318Y-140501572D01*
X102221504Y-140539999D01*
X102221508Y-140540000D01*
X102470000Y-140540000D01*
X102470000Y-139840000D01*
X102970000Y-139840000D01*
X102970000Y-140540000D01*
X103218492Y-140540000D01*
X103218495Y-140539999D01*
X103411681Y-140501572D01*
X103411693Y-140501569D01*
X103593671Y-140426192D01*
X103593684Y-140426185D01*
X103757462Y-140316751D01*
X103757466Y-140316748D01*
X103896748Y-140177466D01*
X103896751Y-140177462D01*
X104006185Y-140013684D01*
X104006192Y-140013671D01*
X104081569Y-139831692D01*
X104081569Y-139831690D01*
X104089862Y-139790000D01*
X103286988Y-139790000D01*
X103304205Y-139780060D01*
X103360060Y-139724205D01*
X103399556Y-139655796D01*
X103420000Y-139579496D01*
X103420000Y-139500504D01*
X103399556Y-139424204D01*
X103360060Y-139355795D01*
X103304205Y-139299940D01*
X103286988Y-139290000D01*
X104089862Y-139290000D01*
X105380138Y-139290000D01*
X106183012Y-139290000D01*
X106165795Y-139299940D01*
X106109940Y-139355795D01*
X106070444Y-139424204D01*
X106050000Y-139500504D01*
X106050000Y-139579496D01*
X106070444Y-139655796D01*
X106109940Y-139724205D01*
X106165795Y-139780060D01*
X106183012Y-139790000D01*
X105380138Y-139790000D01*
X105388430Y-139831690D01*
X105388430Y-139831692D01*
X105463807Y-140013671D01*
X105463814Y-140013684D01*
X105573248Y-140177462D01*
X105573251Y-140177466D01*
X105712533Y-140316748D01*
X105712537Y-140316751D01*
X105876315Y-140426185D01*
X105876328Y-140426192D01*
X106058306Y-140501569D01*
X106058318Y-140501572D01*
X106251504Y-140539999D01*
X106251508Y-140540000D01*
X106650000Y-140540000D01*
X106650000Y-139840000D01*
X107150000Y-139840000D01*
X107150000Y-140540000D01*
X107548492Y-140540000D01*
X107548495Y-140539999D01*
X107741681Y-140501572D01*
X107741693Y-140501569D01*
X107923671Y-140426192D01*
X107923684Y-140426185D01*
X108087462Y-140316751D01*
X108087466Y-140316748D01*
X108226748Y-140177466D01*
X108226751Y-140177462D01*
X108336185Y-140013684D01*
X108336192Y-140013671D01*
X108411569Y-139831692D01*
X108411569Y-139831690D01*
X108419862Y-139790000D01*
X107616988Y-139790000D01*
X107634205Y-139780060D01*
X107690060Y-139724205D01*
X107729556Y-139655796D01*
X107750000Y-139579496D01*
X107750000Y-139500504D01*
X107729556Y-139424204D01*
X107690060Y-139355795D01*
X107634205Y-139299940D01*
X107616988Y-139290000D01*
X108419862Y-139290000D01*
X108411569Y-139248309D01*
X108411569Y-139248307D01*
X108336192Y-139066328D01*
X108336185Y-139066315D01*
X108226751Y-138902537D01*
X108226748Y-138902533D01*
X108087466Y-138763251D01*
X108087462Y-138763248D01*
X107923684Y-138653814D01*
X107923671Y-138653807D01*
X107741693Y-138578430D01*
X107741681Y-138578427D01*
X107548495Y-138540000D01*
X107150000Y-138540000D01*
X107150000Y-139240000D01*
X106650000Y-139240000D01*
X106650000Y-138701784D01*
X106669685Y-138634745D01*
X106712000Y-138594397D01*
X106753365Y-138570515D01*
X106860515Y-138463365D01*
X106861372Y-138461879D01*
X106881721Y-138426637D01*
X106936279Y-138332138D01*
X106936281Y-138332135D01*
X106975500Y-138185766D01*
X106975500Y-138034234D01*
X106936281Y-137887865D01*
X106860515Y-137756635D01*
X106753365Y-137649485D01*
X106687750Y-137611602D01*
X106622136Y-137573719D01*
X106548950Y-137554109D01*
X106475766Y-137534500D01*
X106324234Y-137534500D01*
X106177863Y-137573719D01*
X106046635Y-137649485D01*
X106046632Y-137649487D01*
X105939487Y-137756632D01*
X105939485Y-137756635D01*
X105863719Y-137887863D01*
X105824500Y-138034234D01*
X105824500Y-138185765D01*
X105863719Y-138332136D01*
X105890979Y-138379350D01*
X105939485Y-138463365D01*
X105939486Y-138463366D01*
X105943549Y-138470403D01*
X105941346Y-138471674D01*
X105961959Y-138524983D01*
X105947923Y-138593428D01*
X105899112Y-138643420D01*
X105885845Y-138649866D01*
X105876324Y-138653809D01*
X105876315Y-138653814D01*
X105712537Y-138763248D01*
X105712533Y-138763251D01*
X105573251Y-138902533D01*
X105573248Y-138902537D01*
X105463814Y-139066315D01*
X105463807Y-139066328D01*
X105388430Y-139248307D01*
X105388430Y-139248309D01*
X105380138Y-139290000D01*
X104089862Y-139290000D01*
X104081569Y-139248309D01*
X104081569Y-139248307D01*
X104006192Y-139066328D01*
X104006185Y-139066315D01*
X103896751Y-138902537D01*
X103896748Y-138902533D01*
X103757466Y-138763251D01*
X103757462Y-138763248D01*
X103593684Y-138653814D01*
X103593671Y-138653807D01*
X103411693Y-138578430D01*
X103411681Y-138578427D01*
X103218495Y-138540000D01*
X102970000Y-138540000D01*
X102970000Y-139240000D01*
X102470000Y-139240000D01*
X102470000Y-138540000D01*
X102221504Y-138540000D01*
X102028318Y-138578427D01*
X102028306Y-138578430D01*
X101846328Y-138653807D01*
X101846315Y-138653814D01*
X101682537Y-138763248D01*
X101682533Y-138763251D01*
X101543251Y-138902533D01*
X101543248Y-138902537D01*
X101433814Y-139066315D01*
X101433807Y-139066328D01*
X101358430Y-139248307D01*
X101358430Y-139248309D01*
X101350138Y-139290000D01*
X100025500Y-139290000D01*
X100025500Y-130650000D01*
X101350138Y-130650000D01*
X102153012Y-130650000D01*
X102135795Y-130659940D01*
X102079940Y-130715795D01*
X102040444Y-130784204D01*
X102020000Y-130860504D01*
X102020000Y-130939496D01*
X102040444Y-131015796D01*
X102079940Y-131084205D01*
X102135795Y-131140060D01*
X102153012Y-131150000D01*
X101350138Y-131150000D01*
X101358430Y-131191690D01*
X101358430Y-131191692D01*
X101433807Y-131373671D01*
X101433814Y-131373684D01*
X101543248Y-131537462D01*
X101543251Y-131537466D01*
X101682533Y-131676748D01*
X101682537Y-131676751D01*
X101846315Y-131786185D01*
X101846328Y-131786192D01*
X102028306Y-131861569D01*
X102028318Y-131861572D01*
X102221504Y-131899999D01*
X102221508Y-131900000D01*
X102470000Y-131900000D01*
X102470000Y-131200000D01*
X102970000Y-131200000D01*
X102970000Y-131900000D01*
X103218492Y-131900000D01*
X103218495Y-131899999D01*
X103411681Y-131861572D01*
X103411693Y-131861569D01*
X103593671Y-131786192D01*
X103593684Y-131786185D01*
X103757462Y-131676751D01*
X103757466Y-131676748D01*
X103896748Y-131537466D01*
X103896751Y-131537462D01*
X104006185Y-131373684D01*
X104006192Y-131373671D01*
X104081569Y-131191692D01*
X104081569Y-131191690D01*
X104089862Y-131150000D01*
X103286988Y-131150000D01*
X103304205Y-131140060D01*
X103360060Y-131084205D01*
X103399556Y-131015796D01*
X103420000Y-130939496D01*
X103420000Y-130860504D01*
X103399556Y-130784204D01*
X103360060Y-130715795D01*
X103304205Y-130659940D01*
X103286988Y-130650000D01*
X104089862Y-130650000D01*
X104081569Y-130608309D01*
X104081569Y-130608307D01*
X104006192Y-130426328D01*
X104006185Y-130426315D01*
X103896751Y-130262537D01*
X103896748Y-130262533D01*
X103757466Y-130123251D01*
X103757462Y-130123248D01*
X103593684Y-130013814D01*
X103593671Y-130013807D01*
X103411693Y-129938430D01*
X103411681Y-129938427D01*
X103218495Y-129900000D01*
X102970000Y-129900000D01*
X102970000Y-130600000D01*
X102470000Y-130600000D01*
X102470000Y-129900000D01*
X102221504Y-129900000D01*
X102028318Y-129938427D01*
X102028306Y-129938430D01*
X101846328Y-130013807D01*
X101846315Y-130013814D01*
X101682537Y-130123248D01*
X101682533Y-130123251D01*
X101543251Y-130262533D01*
X101543248Y-130262537D01*
X101433814Y-130426315D01*
X101433807Y-130426328D01*
X101358430Y-130608307D01*
X101358430Y-130608309D01*
X101350138Y-130650000D01*
X100025500Y-130650000D01*
X100025500Y-123335532D01*
X102945500Y-123335532D01*
X102945500Y-123464467D01*
X102970649Y-123590903D01*
X102970652Y-123590912D01*
X103019986Y-123710017D01*
X103019987Y-123710019D01*
X103091616Y-123817219D01*
X103091619Y-123817223D01*
X103182776Y-123908380D01*
X103182780Y-123908383D01*
X103289978Y-123980011D01*
X103289979Y-123980011D01*
X103289980Y-123980012D01*
X103289982Y-123980013D01*
X103369385Y-124012902D01*
X103409089Y-124029348D01*
X103409091Y-124029348D01*
X103409096Y-124029350D01*
X103535532Y-124054499D01*
X103535536Y-124054500D01*
X103535537Y-124054500D01*
X103664464Y-124054500D01*
X103666864Y-124054022D01*
X103673430Y-124052716D01*
X103743021Y-124058938D01*
X103785311Y-124086650D01*
X104409181Y-124710520D01*
X104442666Y-124771843D01*
X104445500Y-124798201D01*
X104445500Y-134721091D01*
X104445500Y-134814433D01*
X104455775Y-134852778D01*
X104469659Y-134904594D01*
X104516328Y-134985428D01*
X104516330Y-134985431D01*
X105615446Y-136084547D01*
X105648931Y-136145870D01*
X105649383Y-136196417D01*
X105647597Y-136205396D01*
X105647597Y-136334326D01*
X105672746Y-136460762D01*
X105672749Y-136460771D01*
X105722083Y-136579876D01*
X105722084Y-136579878D01*
X105793713Y-136687078D01*
X105793716Y-136687082D01*
X105884873Y-136778239D01*
X105884877Y-136778242D01*
X105992075Y-136849870D01*
X105992076Y-136849870D01*
X105992077Y-136849871D01*
X105992079Y-136849872D01*
X106071482Y-136882761D01*
X106111186Y-136899207D01*
X106111188Y-136899207D01*
X106111193Y-136899209D01*
X106237629Y-136924358D01*
X106237633Y-136924359D01*
X106237634Y-136924359D01*
X106366561Y-136924359D01*
X106366562Y-136924358D01*
X106408709Y-136915975D01*
X106493000Y-136899209D01*
X106493003Y-136899207D01*
X106493008Y-136899207D01*
X106612119Y-136849870D01*
X106719317Y-136778242D01*
X106810480Y-136687079D01*
X106882108Y-136579881D01*
X106931445Y-136460770D01*
X106941540Y-136410022D01*
X106956596Y-136334326D01*
X106956597Y-136334323D01*
X106956597Y-136205395D01*
X106956596Y-136205391D01*
X106931447Y-136078955D01*
X106931444Y-136078946D01*
X106882110Y-135959841D01*
X106882109Y-135959840D01*
X106882108Y-135959837D01*
X106810480Y-135852639D01*
X106810478Y-135852637D01*
X106807551Y-135848256D01*
X106786673Y-135781579D01*
X106805157Y-135714199D01*
X106822977Y-135691679D01*
X106827433Y-135687223D01*
X106827434Y-135687222D01*
X106899062Y-135580024D01*
X106948399Y-135460913D01*
X106973551Y-135334465D01*
X106973551Y-135205539D01*
X106973326Y-135204411D01*
X106948401Y-135079098D01*
X106948398Y-135079089D01*
X106899064Y-134959984D01*
X106899063Y-134959982D01*
X106827434Y-134852782D01*
X106827431Y-134852778D01*
X106736274Y-134761621D01*
X106736270Y-134761618D01*
X106629070Y-134689989D01*
X106629068Y-134689988D01*
X106509963Y-134640654D01*
X106509954Y-134640651D01*
X106383518Y-134615502D01*
X106383514Y-134615502D01*
X106254588Y-134615502D01*
X106254583Y-134615502D01*
X106128147Y-134640651D01*
X106128138Y-134640654D01*
X106009033Y-134689988D01*
X105962744Y-134720918D01*
X105896067Y-134741795D01*
X105828687Y-134723310D01*
X105806173Y-134705496D01*
X105591819Y-134491142D01*
X105558334Y-134429819D01*
X105555500Y-134403461D01*
X105555500Y-131803810D01*
X105575185Y-131736771D01*
X105627989Y-131691016D01*
X105697147Y-131681072D01*
X105748391Y-131700708D01*
X105876315Y-131786185D01*
X105876328Y-131786192D01*
X105885838Y-131790131D01*
X105940243Y-131833970D01*
X105962310Y-131900264D01*
X105945033Y-131967963D01*
X105941350Y-131973405D01*
X105863719Y-132107863D01*
X105863141Y-132110022D01*
X105824500Y-132254234D01*
X105824500Y-132405766D01*
X105830819Y-132429348D01*
X105863719Y-132552136D01*
X105901602Y-132617750D01*
X105939485Y-132683365D01*
X106046635Y-132790515D01*
X106177865Y-132866281D01*
X106324234Y-132905500D01*
X106324236Y-132905500D01*
X106475764Y-132905500D01*
X106475766Y-132905500D01*
X106622135Y-132866281D01*
X106753365Y-132790515D01*
X106860515Y-132683365D01*
X106936281Y-132552135D01*
X106975500Y-132405766D01*
X106975500Y-132254234D01*
X106936281Y-132107865D01*
X106860515Y-131976635D01*
X106753365Y-131869485D01*
X106739654Y-131861569D01*
X106711998Y-131845601D01*
X106663784Y-131795033D01*
X106650000Y-131738215D01*
X106650000Y-131200000D01*
X107150000Y-131200000D01*
X107150000Y-131900000D01*
X107548492Y-131900000D01*
X107548495Y-131899999D01*
X107741681Y-131861572D01*
X107741693Y-131861569D01*
X107923671Y-131786192D01*
X107923684Y-131786185D01*
X108087462Y-131676751D01*
X108087466Y-131676748D01*
X108226748Y-131537466D01*
X108226751Y-131537462D01*
X108336185Y-131373684D01*
X108336192Y-131373671D01*
X108411569Y-131191692D01*
X108411569Y-131191690D01*
X108419862Y-131150000D01*
X107616988Y-131150000D01*
X107634205Y-131140060D01*
X107690060Y-131084205D01*
X107729556Y-131015796D01*
X107750000Y-130939496D01*
X107750000Y-130860504D01*
X107729556Y-130784204D01*
X107690060Y-130715795D01*
X107634205Y-130659940D01*
X107616988Y-130650000D01*
X108419862Y-130650000D01*
X108411569Y-130608309D01*
X108411569Y-130608307D01*
X108336192Y-130426328D01*
X108336185Y-130426315D01*
X108226751Y-130262537D01*
X108226748Y-130262533D01*
X108087466Y-130123251D01*
X108087462Y-130123248D01*
X107923684Y-130013814D01*
X107923671Y-130013807D01*
X107741693Y-129938430D01*
X107741681Y-129938427D01*
X107548495Y-129900000D01*
X107150000Y-129900000D01*
X107150000Y-130600000D01*
X106650000Y-130600000D01*
X106650000Y-129900000D01*
X106251504Y-129900000D01*
X106058318Y-129938427D01*
X106058306Y-129938430D01*
X105876328Y-130013807D01*
X105876315Y-130013814D01*
X105748391Y-130099291D01*
X105681713Y-130120169D01*
X105614333Y-130101684D01*
X105567643Y-130049705D01*
X105555500Y-129996189D01*
X105555500Y-127954605D01*
X105575185Y-127887566D01*
X105627989Y-127841811D01*
X105697147Y-127831867D01*
X105748389Y-127851502D01*
X105799975Y-127885971D01*
X105799978Y-127885972D01*
X105799979Y-127885973D01*
X105854083Y-127908383D01*
X105919086Y-127935308D01*
X105919088Y-127935308D01*
X105919093Y-127935310D01*
X106045529Y-127960459D01*
X106045533Y-127960460D01*
X106045534Y-127960460D01*
X106174461Y-127960460D01*
X106174462Y-127960459D01*
X106220953Y-127951212D01*
X106300900Y-127935310D01*
X106300903Y-127935308D01*
X106300908Y-127935308D01*
X106420019Y-127885971D01*
X106420025Y-127885967D01*
X106430442Y-127879007D01*
X106497119Y-127858127D01*
X106561335Y-127874720D01*
X106572800Y-127881339D01*
X106572801Y-127881339D01*
X106572804Y-127881341D01*
X106662965Y-127905500D01*
X106756307Y-127905500D01*
X106935699Y-127905500D01*
X107002738Y-127925185D01*
X107023380Y-127941819D01*
X107136061Y-128054499D01*
X107250227Y-128168665D01*
X107250229Y-128168668D01*
X107316232Y-128234671D01*
X107385176Y-128274475D01*
X107397068Y-128281341D01*
X107487229Y-128305500D01*
X107487231Y-128305500D01*
X134062769Y-128305500D01*
X134062771Y-128305500D01*
X134152932Y-128281341D01*
X134233768Y-128234671D01*
X134517228Y-127951210D01*
X134578549Y-127917727D01*
X134648240Y-127922711D01*
X134673797Y-127935791D01*
X134739975Y-127980009D01*
X134739982Y-127980013D01*
X134819385Y-128012902D01*
X134859089Y-128029348D01*
X134859091Y-128029348D01*
X134859096Y-128029350D01*
X134985532Y-128054499D01*
X134985536Y-128054500D01*
X134985537Y-128054500D01*
X135114464Y-128054500D01*
X135114465Y-128054499D01*
X135167004Y-128044049D01*
X135240903Y-128029350D01*
X135240906Y-128029348D01*
X135240911Y-128029348D01*
X135360022Y-127980011D01*
X135441612Y-127925493D01*
X135508288Y-127904616D01*
X135575668Y-127923100D01*
X135622359Y-127975079D01*
X135633535Y-128044049D01*
X135605650Y-128108113D01*
X135598183Y-128116277D01*
X133889725Y-129824734D01*
X133828402Y-129858219D01*
X133758710Y-129853235D01*
X133733153Y-129840155D01*
X133702970Y-129819987D01*
X133702968Y-129819986D01*
X133583863Y-129770652D01*
X133583854Y-129770649D01*
X133457418Y-129745500D01*
X133457414Y-129745500D01*
X133328488Y-129745500D01*
X133328483Y-129745500D01*
X133202047Y-129770649D01*
X133202038Y-129770652D01*
X133082933Y-129819986D01*
X133082931Y-129819987D01*
X132975731Y-129891616D01*
X132975727Y-129891619D01*
X132884570Y-129982776D01*
X132884567Y-129982780D01*
X132812938Y-130089980D01*
X132812937Y-130089982D01*
X132763603Y-130209087D01*
X132763600Y-130209096D01*
X132738451Y-130335532D01*
X132738451Y-130464467D01*
X132763600Y-130590903D01*
X132763603Y-130590912D01*
X132812937Y-130710017D01*
X132812938Y-130710019D01*
X132884567Y-130817219D01*
X132884570Y-130817223D01*
X132975727Y-130908380D01*
X132975731Y-130908383D01*
X133082929Y-130980011D01*
X133082930Y-130980011D01*
X133087994Y-130983395D01*
X133086453Y-130985699D01*
X133127799Y-131026325D01*
X133143249Y-131094465D01*
X133119407Y-131160142D01*
X133107173Y-131174386D01*
X128868211Y-135413348D01*
X128806888Y-135446833D01*
X128756348Y-135447286D01*
X128747368Y-135445500D01*
X128747363Y-135445500D01*
X128618437Y-135445500D01*
X128618432Y-135445500D01*
X128491996Y-135470649D01*
X128491987Y-135470652D01*
X128372882Y-135519986D01*
X128372880Y-135519987D01*
X128265680Y-135591616D01*
X128265676Y-135591619D01*
X128174519Y-135682776D01*
X128174516Y-135682780D01*
X128102887Y-135789980D01*
X128102886Y-135789982D01*
X128053552Y-135909087D01*
X128053549Y-135909096D01*
X128028400Y-136035532D01*
X128028400Y-136164467D01*
X128053549Y-136290903D01*
X128053552Y-136290912D01*
X128102886Y-136410017D01*
X128102887Y-136410019D01*
X128174516Y-136517219D01*
X128174519Y-136517223D01*
X128265676Y-136608380D01*
X128265680Y-136608383D01*
X128372878Y-136680011D01*
X128375202Y-136680973D01*
X128376234Y-136681805D01*
X128378256Y-136682886D01*
X128378051Y-136683269D01*
X128400718Y-136701531D01*
X128426958Y-136721137D01*
X128427779Y-136723334D01*
X128429608Y-136724807D01*
X128439961Y-136755904D01*
X128451435Y-136786579D01*
X128450938Y-136788871D01*
X128451680Y-136791099D01*
X128443579Y-136822848D01*
X128436645Y-136854866D01*
X128434770Y-136857374D01*
X128434407Y-136858800D01*
X128415520Y-136883139D01*
X128414971Y-136883689D01*
X128366330Y-136932330D01*
X128366328Y-136932333D01*
X128319659Y-137013167D01*
X128295500Y-137103330D01*
X128295500Y-137133429D01*
X128275815Y-137200468D01*
X128240397Y-137236527D01*
X128232780Y-137241617D01*
X128232773Y-137241623D01*
X128141619Y-137332776D01*
X128141616Y-137332780D01*
X128069987Y-137439980D01*
X128069986Y-137439982D01*
X128020652Y-137559087D01*
X128020649Y-137559096D01*
X127995500Y-137685532D01*
X127995500Y-137814467D01*
X128020649Y-137940903D01*
X128020652Y-137940912D01*
X128069986Y-138060017D01*
X128069987Y-138060019D01*
X128141616Y-138167219D01*
X128141619Y-138167223D01*
X128232776Y-138258380D01*
X128232780Y-138258383D01*
X128339978Y-138330011D01*
X128339979Y-138330011D01*
X128339980Y-138330012D01*
X128339982Y-138330013D01*
X128419385Y-138362902D01*
X128459089Y-138379348D01*
X128459091Y-138379348D01*
X128459096Y-138379350D01*
X128585532Y-138404499D01*
X128585536Y-138404500D01*
X128585537Y-138404500D01*
X128714464Y-138404500D01*
X128714465Y-138404499D01*
X128756612Y-138396116D01*
X128840903Y-138379350D01*
X128840906Y-138379348D01*
X128840911Y-138379348D01*
X128960022Y-138330011D01*
X129067220Y-138258383D01*
X129158383Y-138167220D01*
X129230011Y-138060022D01*
X129279348Y-137940911D01*
X129289900Y-137887865D01*
X129304499Y-137814467D01*
X129304500Y-137814464D01*
X129304500Y-137685536D01*
X129304499Y-137685532D01*
X129279350Y-137559096D01*
X129279347Y-137559087D01*
X129230013Y-137439982D01*
X129230012Y-137439980D01*
X129158383Y-137332780D01*
X129158380Y-137332776D01*
X129151151Y-137325547D01*
X129117666Y-137264224D01*
X129122650Y-137194532D01*
X129151147Y-137150190D01*
X129591358Y-136709978D01*
X129591363Y-136709975D01*
X129601566Y-136699771D01*
X129601568Y-136699771D01*
X129667571Y-136633768D01*
X129714241Y-136552932D01*
X129738400Y-136462771D01*
X129738400Y-136164301D01*
X129758085Y-136097262D01*
X129774719Y-136076620D01*
X136633819Y-129217520D01*
X136695142Y-129184035D01*
X136764834Y-129189019D01*
X136820767Y-129230891D01*
X136845184Y-129296355D01*
X136845500Y-129305201D01*
X136845500Y-143301799D01*
X136825815Y-143368838D01*
X136809181Y-143389480D01*
X135889480Y-144309181D01*
X135828157Y-144342666D01*
X135801799Y-144345500D01*
X125088219Y-144345500D01*
X125021180Y-144325815D01*
X124975425Y-144273011D01*
X124966602Y-144245691D01*
X124954350Y-144184096D01*
X124954347Y-144184087D01*
X124905013Y-144064982D01*
X124905012Y-144064980D01*
X124833383Y-143957780D01*
X124833380Y-143957776D01*
X124742223Y-143866619D01*
X124742219Y-143866616D01*
X124635019Y-143794987D01*
X124635017Y-143794986D01*
X124515912Y-143745652D01*
X124515903Y-143745649D01*
X124389467Y-143720500D01*
X124389463Y-143720500D01*
X124260537Y-143720500D01*
X124260532Y-143720500D01*
X124134096Y-143745649D01*
X124134087Y-143745652D01*
X124014982Y-143794986D01*
X124014980Y-143794987D01*
X123907780Y-143866616D01*
X123907776Y-143866619D01*
X123816619Y-143957776D01*
X123816616Y-143957780D01*
X123744987Y-144064980D01*
X123744986Y-144064982D01*
X123695652Y-144184087D01*
X123695649Y-144184096D01*
X123670500Y-144310532D01*
X123670500Y-144439467D01*
X123695649Y-144565903D01*
X123695652Y-144565912D01*
X123744986Y-144685017D01*
X123744987Y-144685019D01*
X123816616Y-144792219D01*
X123816619Y-144792223D01*
X123907776Y-144883380D01*
X123907780Y-144883383D01*
X124014978Y-144955011D01*
X124014979Y-144955011D01*
X124014980Y-144955012D01*
X124014982Y-144955013D01*
X124084165Y-144983669D01*
X124134089Y-145004348D01*
X124134091Y-145004348D01*
X124134096Y-145004350D01*
X124260532Y-145029499D01*
X124260536Y-145029500D01*
X124260537Y-145029500D01*
X124389464Y-145029500D01*
X124434768Y-145020488D01*
X124504360Y-145026715D01*
X124506406Y-145027541D01*
X124513163Y-145030339D01*
X124513165Y-145030339D01*
X124513168Y-145030341D01*
X124603329Y-145054500D01*
X124603331Y-145054500D01*
X136046669Y-145054500D01*
X136046671Y-145054500D01*
X136136832Y-145030341D01*
X136217668Y-144983671D01*
X137033819Y-144167520D01*
X137095142Y-144134035D01*
X137164834Y-144139019D01*
X137220767Y-144180891D01*
X137245184Y-144246355D01*
X137245500Y-144255201D01*
X137245500Y-146576721D01*
X137225815Y-146643760D01*
X137173011Y-146689515D01*
X137168954Y-146691281D01*
X137124199Y-146709819D01*
X137124184Y-146709827D01*
X136959669Y-146819753D01*
X136959665Y-146819756D01*
X136819756Y-146959665D01*
X136819753Y-146959669D01*
X136709827Y-147124184D01*
X136709820Y-147124197D01*
X136634104Y-147306993D01*
X136634101Y-147307003D01*
X136595500Y-147501062D01*
X136595500Y-147501065D01*
X136595500Y-147698935D01*
X136595500Y-147698937D01*
X136595499Y-147698937D01*
X136634101Y-147892996D01*
X136634104Y-147893006D01*
X136709820Y-148075802D01*
X136709827Y-148075815D01*
X136819753Y-148240330D01*
X136819756Y-148240334D01*
X136959665Y-148380243D01*
X136959669Y-148380246D01*
X137124184Y-148490172D01*
X137124197Y-148490179D01*
X137306993Y-148565895D01*
X137306998Y-148565897D01*
X137307002Y-148565897D01*
X137307003Y-148565898D01*
X137501062Y-148604500D01*
X137501065Y-148604500D01*
X137698937Y-148604500D01*
X137829495Y-148578529D01*
X137893002Y-148565897D01*
X138034389Y-148507332D01*
X138075802Y-148490179D01*
X138075802Y-148490178D01*
X138075809Y-148490176D01*
X138240331Y-148380246D01*
X138380246Y-148240331D01*
X138490176Y-148075809D01*
X138565897Y-147893002D01*
X138580376Y-147820212D01*
X138604500Y-147698937D01*
X138604500Y-147501062D01*
X138565898Y-147307003D01*
X138565897Y-147307002D01*
X138565897Y-147306998D01*
X138540816Y-147246446D01*
X138490179Y-147124197D01*
X138490172Y-147124184D01*
X138380246Y-146959669D01*
X138380243Y-146959665D01*
X138240334Y-146819756D01*
X138240330Y-146819753D01*
X138075815Y-146709827D01*
X138075800Y-146709819D01*
X138031046Y-146691281D01*
X137976643Y-146647440D01*
X137954579Y-146581145D01*
X137954500Y-146576721D01*
X137954500Y-128384193D01*
X137974185Y-128317154D01*
X138026989Y-128271399D01*
X138054304Y-128262576D01*
X138120936Y-128249323D01*
X138240047Y-128199986D01*
X138347245Y-128128358D01*
X138438408Y-128037195D01*
X138510036Y-127929997D01*
X138559373Y-127810886D01*
X138584525Y-127684438D01*
X138584525Y-127555512D01*
X138584300Y-127554384D01*
X138559375Y-127429071D01*
X138559372Y-127429062D01*
X138510038Y-127309957D01*
X138510037Y-127309955D01*
X138438408Y-127202755D01*
X138438405Y-127202751D01*
X138347248Y-127111594D01*
X138347244Y-127111591D01*
X138240044Y-127039962D01*
X138240042Y-127039961D01*
X138120937Y-126990627D01*
X138120928Y-126990624D01*
X137994492Y-126965475D01*
X137994488Y-126965475D01*
X137865562Y-126965475D01*
X137865557Y-126965475D01*
X137739121Y-126990624D01*
X137739113Y-126990627D01*
X137726948Y-126995666D01*
X137657478Y-127003132D01*
X137595000Y-126971854D01*
X137559351Y-126911764D01*
X137555500Y-126881103D01*
X137555500Y-112486019D01*
X137575185Y-112418980D01*
X137591819Y-112398338D01*
X137654625Y-112335532D01*
X137792202Y-112197955D01*
X137838873Y-112117118D01*
X137863032Y-112026958D01*
X137863032Y-111933615D01*
X137863032Y-111926020D01*
X137863031Y-111926002D01*
X137863031Y-110335446D01*
X137862999Y-110335327D01*
X137858208Y-110317448D01*
X137838872Y-110245285D01*
X137834910Y-110238423D01*
X137828467Y-110227263D01*
X137828466Y-110227260D01*
X137792206Y-110164455D01*
X137792203Y-110164451D01*
X137792202Y-110164449D01*
X137726199Y-110098446D01*
X137726198Y-110098445D01*
X137721868Y-110094115D01*
X137721857Y-110094105D01*
X137306711Y-109678958D01*
X137295205Y-109668866D01*
X136892520Y-109266181D01*
X136859035Y-109204858D01*
X136864019Y-109135166D01*
X136905891Y-109079233D01*
X136971355Y-109054816D01*
X136980201Y-109054500D01*
X140821500Y-109054500D01*
X140888539Y-109074185D01*
X140934294Y-109126989D01*
X140945500Y-109178500D01*
X140945500Y-125010435D01*
X140925815Y-125077474D01*
X140909181Y-125098116D01*
X140315330Y-125691966D01*
X140315328Y-125691969D01*
X140268659Y-125772803D01*
X140268659Y-125772804D01*
X140244500Y-125862965D01*
X140244500Y-126443693D01*
X140244500Y-126537035D01*
X140268659Y-126627196D01*
X140311827Y-126701967D01*
X140315328Y-126708030D01*
X140315330Y-126708033D01*
X140508181Y-126900884D01*
X140541666Y-126962207D01*
X140544500Y-126988565D01*
X140544500Y-131041952D01*
X140524815Y-131108991D01*
X140472011Y-131154746D01*
X140444694Y-131163569D01*
X140409092Y-131170651D01*
X140409087Y-131170652D01*
X140289982Y-131219986D01*
X140289980Y-131219987D01*
X140182780Y-131291616D01*
X140182776Y-131291619D01*
X140091619Y-131382776D01*
X140091616Y-131382780D01*
X140019987Y-131489980D01*
X140019986Y-131489982D01*
X139970652Y-131609087D01*
X139970649Y-131609096D01*
X139945500Y-131735532D01*
X139945500Y-131864467D01*
X139970649Y-131990903D01*
X139970652Y-131990912D01*
X140019986Y-132110017D01*
X140019987Y-132110019D01*
X140091616Y-132217219D01*
X140091619Y-132217223D01*
X140182776Y-132308380D01*
X140182780Y-132308383D01*
X140289978Y-132380011D01*
X140289979Y-132380011D01*
X140289980Y-132380012D01*
X140289982Y-132380013D01*
X140369385Y-132412902D01*
X140409089Y-132429348D01*
X140409091Y-132429348D01*
X140409096Y-132429350D01*
X140535532Y-132454499D01*
X140535536Y-132454500D01*
X140535537Y-132454500D01*
X140664464Y-132454500D01*
X140664465Y-132454499D01*
X140702992Y-132446835D01*
X140796886Y-132428160D01*
X140797434Y-132430915D01*
X140855195Y-132430314D01*
X140914363Y-132467475D01*
X140944048Y-132530725D01*
X140945500Y-132549648D01*
X140945500Y-139551799D01*
X140925815Y-139618838D01*
X140909181Y-139639480D01*
X139916330Y-140632330D01*
X139916328Y-140632333D01*
X139869659Y-140713167D01*
X139845500Y-140803330D01*
X139845500Y-146576721D01*
X139825815Y-146643760D01*
X139773011Y-146689515D01*
X139768954Y-146691281D01*
X139724199Y-146709819D01*
X139724184Y-146709827D01*
X139559669Y-146819753D01*
X139559665Y-146819756D01*
X139419756Y-146959665D01*
X139419753Y-146959669D01*
X139309827Y-147124184D01*
X139309820Y-147124197D01*
X139234104Y-147306993D01*
X139234101Y-147307003D01*
X139195500Y-147501062D01*
X139195500Y-147501065D01*
X139195500Y-147698935D01*
X139195500Y-147698937D01*
X139195499Y-147698937D01*
X139234101Y-147892996D01*
X139234104Y-147893006D01*
X139309820Y-148075802D01*
X139309827Y-148075815D01*
X139419753Y-148240330D01*
X139419756Y-148240334D01*
X139559665Y-148380243D01*
X139559669Y-148380246D01*
X139724184Y-148490172D01*
X139724197Y-148490179D01*
X139906993Y-148565895D01*
X139906998Y-148565897D01*
X139907002Y-148565897D01*
X139907003Y-148565898D01*
X140101062Y-148604500D01*
X140101065Y-148604500D01*
X140298937Y-148604500D01*
X140429495Y-148578529D01*
X140493002Y-148565897D01*
X140634389Y-148507332D01*
X140675802Y-148490179D01*
X140675802Y-148490178D01*
X140675809Y-148490176D01*
X140840331Y-148380246D01*
X140980246Y-148240331D01*
X141090176Y-148075809D01*
X141165897Y-147893002D01*
X141180376Y-147820212D01*
X141204500Y-147698937D01*
X141204500Y-147501617D01*
X141550000Y-147501617D01*
X141550000Y-147698382D01*
X141580778Y-147892705D01*
X141641581Y-148079835D01*
X141730905Y-148255145D01*
X141756319Y-148290125D01*
X141756320Y-148290125D01*
X142446446Y-147600000D01*
X142446446Y-147599999D01*
X142400369Y-147553922D01*
X142450000Y-147553922D01*
X142450000Y-147646078D01*
X142473852Y-147735095D01*
X142519930Y-147814905D01*
X142585095Y-147880070D01*
X142664905Y-147926148D01*
X142753922Y-147950000D01*
X142846078Y-147950000D01*
X142935095Y-147926148D01*
X143014905Y-147880070D01*
X143080070Y-147814905D01*
X143126148Y-147735095D01*
X143150000Y-147646078D01*
X143150000Y-147599999D01*
X143153553Y-147599999D01*
X143153553Y-147600001D01*
X143843678Y-148290126D01*
X143843678Y-148290125D01*
X143869095Y-148255143D01*
X143958418Y-148079835D01*
X144019221Y-147892705D01*
X144050000Y-147698382D01*
X144050000Y-147501617D01*
X144019221Y-147307294D01*
X143958418Y-147120164D01*
X143869093Y-146944853D01*
X143843679Y-146909873D01*
X143843677Y-146909873D01*
X143153553Y-147599999D01*
X143150000Y-147599999D01*
X143150000Y-147553922D01*
X143126148Y-147464905D01*
X143080070Y-147385095D01*
X143014905Y-147319930D01*
X142935095Y-147273852D01*
X142846078Y-147250000D01*
X142753922Y-147250000D01*
X142664905Y-147273852D01*
X142585095Y-147319930D01*
X142519930Y-147385095D01*
X142473852Y-147464905D01*
X142450000Y-147553922D01*
X142400369Y-147553922D01*
X141756320Y-146909872D01*
X141756320Y-146909873D01*
X141730902Y-146944859D01*
X141730899Y-146944863D01*
X141641582Y-147120161D01*
X141580778Y-147307294D01*
X141550000Y-147501617D01*
X141204500Y-147501617D01*
X141204500Y-147501062D01*
X141165898Y-147307003D01*
X141165897Y-147307002D01*
X141165897Y-147306998D01*
X141140816Y-147246446D01*
X141090179Y-147124197D01*
X141090172Y-147124184D01*
X140980246Y-146959669D01*
X140980243Y-146959665D01*
X140840334Y-146819756D01*
X140840330Y-146819753D01*
X140680268Y-146712803D01*
X140680266Y-146712802D01*
X140675809Y-146709824D01*
X140630006Y-146690852D01*
X140628871Y-146690356D01*
X140602957Y-146668645D01*
X140576643Y-146647440D01*
X140576255Y-146646274D01*
X140575314Y-146645486D01*
X140565252Y-146613214D01*
X140554579Y-146581145D01*
X140554538Y-146578850D01*
X140554517Y-146578783D01*
X140554535Y-146578715D01*
X140554500Y-146576721D01*
X140554500Y-146556320D01*
X142109872Y-146556320D01*
X142800000Y-147246446D01*
X142800001Y-147246446D01*
X143167735Y-146878711D01*
X145149500Y-146878711D01*
X145149500Y-147121288D01*
X145181161Y-147361785D01*
X145243947Y-147596104D01*
X145286542Y-147698937D01*
X145336776Y-147820212D01*
X145458064Y-148030289D01*
X145458066Y-148030292D01*
X145458067Y-148030293D01*
X145605733Y-148222736D01*
X145605739Y-148222743D01*
X145777256Y-148394260D01*
X145777262Y-148394265D01*
X145969711Y-148541936D01*
X146179788Y-148663224D01*
X146403900Y-148756054D01*
X146638211Y-148818838D01*
X146818586Y-148842584D01*
X146878711Y-148850500D01*
X146878712Y-148850500D01*
X147121289Y-148850500D01*
X147169388Y-148844167D01*
X147361789Y-148818838D01*
X147596100Y-148756054D01*
X147820212Y-148663224D01*
X148030289Y-148541936D01*
X148222738Y-148394265D01*
X148394265Y-148222738D01*
X148541936Y-148030289D01*
X148663224Y-147820212D01*
X148756054Y-147596100D01*
X148818838Y-147361789D01*
X148850500Y-147121288D01*
X148850500Y-146878712D01*
X148818838Y-146638211D01*
X148756054Y-146403900D01*
X148663224Y-146179788D01*
X148541936Y-145969711D01*
X148481018Y-145890321D01*
X148394266Y-145777263D01*
X148394260Y-145777256D01*
X148222743Y-145605739D01*
X148222736Y-145605733D01*
X148030293Y-145458067D01*
X148030292Y-145458066D01*
X148030289Y-145458064D01*
X147820212Y-145336776D01*
X147804339Y-145330201D01*
X147596104Y-145243947D01*
X147361785Y-145181161D01*
X147121289Y-145149500D01*
X147121288Y-145149500D01*
X146878712Y-145149500D01*
X146878711Y-145149500D01*
X146638214Y-145181161D01*
X146403895Y-145243947D01*
X146179794Y-145336773D01*
X146179785Y-145336777D01*
X145969706Y-145458067D01*
X145777263Y-145605733D01*
X145777256Y-145605739D01*
X145605739Y-145777256D01*
X145605733Y-145777263D01*
X145458067Y-145969706D01*
X145336777Y-146179785D01*
X145336773Y-146179794D01*
X145243947Y-146403895D01*
X145181161Y-146638214D01*
X145149500Y-146878711D01*
X143167735Y-146878711D01*
X143490125Y-146556320D01*
X143490125Y-146556319D01*
X143455145Y-146530905D01*
X143279835Y-146441581D01*
X143092705Y-146380778D01*
X142898382Y-146350000D01*
X142701618Y-146350000D01*
X142507294Y-146380778D01*
X142320161Y-146441582D01*
X142144863Y-146530899D01*
X142144859Y-146530902D01*
X142109873Y-146556320D01*
X142109872Y-146556320D01*
X140554500Y-146556320D01*
X140554500Y-141048201D01*
X140574185Y-140981162D01*
X140590819Y-140960520D01*
X141049770Y-140501569D01*
X141583671Y-139967668D01*
X141630341Y-139886832D01*
X141654500Y-139796671D01*
X141654500Y-126816570D01*
X141674185Y-126749531D01*
X141709614Y-126713465D01*
X141717220Y-126708383D01*
X141808383Y-126617220D01*
X141880011Y-126510022D01*
X141929348Y-126390911D01*
X141929495Y-126390176D01*
X141954499Y-126264467D01*
X141954500Y-126264464D01*
X141954500Y-126135536D01*
X141954499Y-126135532D01*
X141929350Y-126009096D01*
X141929347Y-126009087D01*
X141880013Y-125889982D01*
X141880012Y-125889980D01*
X141841789Y-125832776D01*
X141808383Y-125782780D01*
X141808380Y-125782776D01*
X141717223Y-125691619D01*
X141717219Y-125691616D01*
X141622336Y-125628217D01*
X141610022Y-125619989D01*
X141610020Y-125619988D01*
X141604957Y-125616605D01*
X141606330Y-125614549D01*
X141564231Y-125573185D01*
X141548778Y-125505045D01*
X141572617Y-125439368D01*
X141582272Y-125428126D01*
X141583664Y-125426310D01*
X141583671Y-125426304D01*
X141630341Y-125345468D01*
X141654500Y-125255307D01*
X141654500Y-108653329D01*
X141654500Y-106716570D01*
X141674185Y-106649531D01*
X141709614Y-106613465D01*
X141717220Y-106608383D01*
X141808383Y-106517220D01*
X141880011Y-106410022D01*
X141929348Y-106290911D01*
X141954500Y-106164463D01*
X141954500Y-106035537D01*
X141954275Y-106034409D01*
X141929350Y-105909096D01*
X141929347Y-105909087D01*
X141880013Y-105789982D01*
X141880012Y-105789980D01*
X141808383Y-105682780D01*
X141808380Y-105682776D01*
X141717223Y-105591619D01*
X141717219Y-105591616D01*
X141610019Y-105519987D01*
X141610017Y-105519986D01*
X141490912Y-105470652D01*
X141490903Y-105470649D01*
X141364467Y-105445500D01*
X141364463Y-105445500D01*
X141235537Y-105445500D01*
X141235532Y-105445500D01*
X141109096Y-105470649D01*
X141109087Y-105470652D01*
X140989982Y-105519986D01*
X140989980Y-105519987D01*
X140882780Y-105591616D01*
X140882776Y-105591619D01*
X140791619Y-105682776D01*
X140791616Y-105682780D01*
X140719987Y-105789980D01*
X140719986Y-105789982D01*
X140670652Y-105909087D01*
X140670649Y-105909096D01*
X140645500Y-106035532D01*
X140645500Y-106164467D01*
X140670649Y-106290903D01*
X140670652Y-106290912D01*
X140719986Y-106410017D01*
X140719987Y-106410019D01*
X140791616Y-106517219D01*
X140791619Y-106517223D01*
X140882776Y-106608380D01*
X140882780Y-106608383D01*
X140890386Y-106613465D01*
X140935194Y-106667075D01*
X140945500Y-106716570D01*
X140945500Y-108221500D01*
X140925815Y-108288539D01*
X140873011Y-108334294D01*
X140821500Y-108345500D01*
X114316570Y-108345500D01*
X114249531Y-108325815D01*
X114213471Y-108290395D01*
X114208383Y-108282780D01*
X114208379Y-108282776D01*
X114208377Y-108282773D01*
X114117223Y-108191619D01*
X114117219Y-108191616D01*
X114010019Y-108119987D01*
X114010017Y-108119986D01*
X113890912Y-108070652D01*
X113890903Y-108070649D01*
X113764467Y-108045500D01*
X113764463Y-108045500D01*
X113635537Y-108045500D01*
X113635532Y-108045500D01*
X113509096Y-108070649D01*
X113509087Y-108070652D01*
X113389982Y-108119986D01*
X113389980Y-108119987D01*
X113282780Y-108191616D01*
X113282776Y-108191619D01*
X113191619Y-108282776D01*
X113191616Y-108282780D01*
X113119987Y-108389980D01*
X113119986Y-108389982D01*
X113070652Y-108509087D01*
X113070649Y-108509096D01*
X113045500Y-108635532D01*
X113045500Y-108764467D01*
X113070649Y-108890903D01*
X113070652Y-108890912D01*
X113119986Y-109010017D01*
X113119987Y-109010019D01*
X113191616Y-109117219D01*
X113191619Y-109117223D01*
X113282776Y-109208380D01*
X113282780Y-109208383D01*
X113389978Y-109280011D01*
X113389979Y-109280011D01*
X113389980Y-109280012D01*
X113389982Y-109280013D01*
X113469385Y-109312902D01*
X113509089Y-109329348D01*
X113509091Y-109329348D01*
X113509096Y-109329350D01*
X113635532Y-109354499D01*
X113635536Y-109354500D01*
X113635537Y-109354500D01*
X113764464Y-109354500D01*
X113764465Y-109354499D01*
X113809709Y-109345500D01*
X113890903Y-109329350D01*
X113890906Y-109329348D01*
X113890911Y-109329348D01*
X114010022Y-109280011D01*
X114117220Y-109208383D01*
X114147103Y-109178500D01*
X114208377Y-109117227D01*
X114208377Y-109117226D01*
X114208383Y-109117220D01*
X114213470Y-109109605D01*
X114267081Y-109064804D01*
X114316570Y-109054500D01*
X116444799Y-109054500D01*
X116511838Y-109074185D01*
X116557593Y-109126989D01*
X116567537Y-109196147D01*
X116538512Y-109259703D01*
X116532480Y-109266181D01*
X113039480Y-112759181D01*
X112978157Y-112792666D01*
X112951799Y-112795500D01*
X110766570Y-112795500D01*
X110699531Y-112775815D01*
X110663471Y-112740395D01*
X110658383Y-112732780D01*
X110658379Y-112732776D01*
X110658377Y-112732773D01*
X110567223Y-112641619D01*
X110567219Y-112641616D01*
X110460019Y-112569987D01*
X110460017Y-112569986D01*
X110340912Y-112520652D01*
X110340903Y-112520649D01*
X110214467Y-112495500D01*
X110214463Y-112495500D01*
X110085537Y-112495500D01*
X110085532Y-112495500D01*
X109959096Y-112520649D01*
X109959087Y-112520652D01*
X109839982Y-112569986D01*
X109839980Y-112569987D01*
X109732780Y-112641616D01*
X109732776Y-112641619D01*
X109641619Y-112732776D01*
X109641616Y-112732780D01*
X109569987Y-112839980D01*
X109569986Y-112839982D01*
X109520652Y-112959087D01*
X109520649Y-112959096D01*
X109495500Y-113085532D01*
X109495500Y-113214467D01*
X109520649Y-113340903D01*
X109520652Y-113340912D01*
X109569986Y-113460017D01*
X109569987Y-113460019D01*
X109641616Y-113567219D01*
X109641619Y-113567223D01*
X109732776Y-113658380D01*
X109732780Y-113658383D01*
X109839978Y-113730011D01*
X109839979Y-113730011D01*
X109839980Y-113730012D01*
X109839982Y-113730013D01*
X109919385Y-113762902D01*
X109959089Y-113779348D01*
X109959091Y-113779348D01*
X109959096Y-113779350D01*
X110085532Y-113804499D01*
X110085536Y-113804500D01*
X110085537Y-113804500D01*
X110214464Y-113804500D01*
X110214465Y-113804499D01*
X110256612Y-113796116D01*
X110340903Y-113779350D01*
X110340906Y-113779348D01*
X110340911Y-113779348D01*
X110460022Y-113730011D01*
X110567220Y-113658383D01*
X110658383Y-113567220D01*
X110668145Y-113552608D01*
X110673719Y-113546313D01*
X110696467Y-113532030D01*
X110717081Y-113514804D01*
X110727290Y-113512678D01*
X110732893Y-113509161D01*
X110743639Y-113509274D01*
X110766570Y-113504500D01*
X113196669Y-113504500D01*
X113196671Y-113504500D01*
X113286832Y-113480341D01*
X113367668Y-113433671D01*
X115987268Y-110814071D01*
X117049499Y-110814071D01*
X117074497Y-110939738D01*
X117074499Y-110939744D01*
X117123533Y-111058124D01*
X117123538Y-111058133D01*
X117194723Y-111164668D01*
X117194726Y-111164672D01*
X117285327Y-111255273D01*
X117285331Y-111255276D01*
X117391866Y-111326461D01*
X117391872Y-111326464D01*
X117391873Y-111326465D01*
X117510256Y-111375501D01*
X117510260Y-111375501D01*
X117510261Y-111375502D01*
X117635928Y-111400500D01*
X117635931Y-111400500D01*
X117764071Y-111400500D01*
X117848615Y-111383682D01*
X117889744Y-111375501D01*
X118008127Y-111326465D01*
X118114669Y-111255276D01*
X118205276Y-111164669D01*
X118276465Y-111058127D01*
X118325501Y-110939744D01*
X118350500Y-110814069D01*
X118350500Y-110685931D01*
X118350500Y-110685928D01*
X118325502Y-110560261D01*
X118325501Y-110560260D01*
X118325501Y-110560256D01*
X118276465Y-110441873D01*
X118276464Y-110441872D01*
X118276461Y-110441866D01*
X118205276Y-110335331D01*
X118205273Y-110335327D01*
X118114672Y-110244726D01*
X118114668Y-110244723D01*
X118008133Y-110173538D01*
X118008124Y-110173533D01*
X117889744Y-110124499D01*
X117889738Y-110124497D01*
X117764071Y-110099500D01*
X117764069Y-110099500D01*
X117635931Y-110099500D01*
X117635929Y-110099500D01*
X117510261Y-110124497D01*
X117510255Y-110124499D01*
X117391875Y-110173533D01*
X117391866Y-110173538D01*
X117285331Y-110244723D01*
X117285327Y-110244726D01*
X117194726Y-110335327D01*
X117194723Y-110335331D01*
X117123538Y-110441866D01*
X117123533Y-110441875D01*
X117074499Y-110560255D01*
X117074497Y-110560261D01*
X117049500Y-110685928D01*
X117049500Y-110685931D01*
X117049500Y-110814069D01*
X117049500Y-110814071D01*
X117049499Y-110814071D01*
X115987268Y-110814071D01*
X117309520Y-109491819D01*
X117370843Y-109458334D01*
X117397201Y-109455500D01*
X133317496Y-109455500D01*
X133384535Y-109475185D01*
X133430290Y-109527989D01*
X133439113Y-109555308D01*
X133450251Y-109611303D01*
X133450253Y-109611311D01*
X133499587Y-109730416D01*
X133499588Y-109730418D01*
X133571217Y-109837618D01*
X133571220Y-109837622D01*
X133662377Y-109928779D01*
X133662381Y-109928782D01*
X133769579Y-110000410D01*
X133769580Y-110000410D01*
X133769581Y-110000411D01*
X133769583Y-110000412D01*
X133818262Y-110020575D01*
X133888690Y-110049747D01*
X133888692Y-110049747D01*
X133888697Y-110049749D01*
X134015133Y-110074898D01*
X134015137Y-110074899D01*
X134015138Y-110074899D01*
X134144065Y-110074899D01*
X134146465Y-110074421D01*
X134153031Y-110073115D01*
X134222622Y-110079337D01*
X134264912Y-110107049D01*
X135308181Y-111150317D01*
X135341666Y-111211640D01*
X135344500Y-111237998D01*
X135344500Y-112093185D01*
X135344500Y-112186527D01*
X135368659Y-112276688D01*
X135402634Y-112335536D01*
X135415328Y-112357522D01*
X135415330Y-112357525D01*
X135607181Y-112549376D01*
X135640666Y-112610699D01*
X135643500Y-112637057D01*
X135643500Y-125561178D01*
X135623815Y-125628217D01*
X135571011Y-125673972D01*
X135501853Y-125683916D01*
X135465750Y-125672079D01*
X135465651Y-125672320D01*
X135462483Y-125671007D01*
X135461050Y-125670538D01*
X135460020Y-125669988D01*
X135340912Y-125620652D01*
X135340903Y-125620649D01*
X135214467Y-125595500D01*
X135214463Y-125595500D01*
X135085537Y-125595500D01*
X135085532Y-125595500D01*
X134959096Y-125620649D01*
X134959087Y-125620652D01*
X134839982Y-125669986D01*
X134839980Y-125669987D01*
X134732780Y-125741616D01*
X134732776Y-125741619D01*
X134641619Y-125832776D01*
X134641616Y-125832780D01*
X134569987Y-125939980D01*
X134569986Y-125939982D01*
X134520652Y-126059087D01*
X134520649Y-126059096D01*
X134495500Y-126185532D01*
X134495500Y-126314468D01*
X134497286Y-126323448D01*
X134491053Y-126393039D01*
X134463348Y-126435311D01*
X134261053Y-126637606D01*
X134199730Y-126671091D01*
X134130038Y-126666107D01*
X134074105Y-126624235D01*
X134058813Y-126597381D01*
X134035036Y-126539978D01*
X133963408Y-126432780D01*
X133963405Y-126432776D01*
X133872248Y-126341619D01*
X133872244Y-126341616D01*
X133765044Y-126269987D01*
X133765042Y-126269986D01*
X133645937Y-126220652D01*
X133645928Y-126220649D01*
X133519492Y-126195500D01*
X133519488Y-126195500D01*
X133390562Y-126195500D01*
X133390557Y-126195500D01*
X133264121Y-126220649D01*
X133264112Y-126220652D01*
X133145007Y-126269986D01*
X133105586Y-126296327D01*
X133038909Y-126317204D01*
X132971529Y-126298719D01*
X132924839Y-126246740D01*
X132922152Y-126240718D01*
X132880011Y-126138978D01*
X132808383Y-126031780D01*
X132808380Y-126031776D01*
X132717223Y-125940619D01*
X132717219Y-125940616D01*
X132610019Y-125868987D01*
X132610017Y-125868986D01*
X132490912Y-125819652D01*
X132490903Y-125819649D01*
X132364467Y-125794500D01*
X132364463Y-125794500D01*
X132235537Y-125794500D01*
X132235532Y-125794500D01*
X132109096Y-125819649D01*
X132109087Y-125819652D01*
X131989982Y-125868986D01*
X131989980Y-125868987D01*
X131882780Y-125940616D01*
X131882776Y-125940619D01*
X131791619Y-126031776D01*
X131791616Y-126031780D01*
X131719987Y-126138980D01*
X131719986Y-126138982D01*
X131670652Y-126258087D01*
X131670650Y-126258096D01*
X131663570Y-126293691D01*
X131631186Y-126355602D01*
X131570470Y-126390176D01*
X131541953Y-126393500D01*
X119633301Y-126393500D01*
X119566262Y-126373815D01*
X119545620Y-126357181D01*
X116123971Y-122935532D01*
X121345500Y-122935532D01*
X121345500Y-123064467D01*
X121370649Y-123190903D01*
X121370652Y-123190912D01*
X121419986Y-123310017D01*
X121419987Y-123310019D01*
X121491616Y-123417219D01*
X121491619Y-123417223D01*
X121582776Y-123508380D01*
X121582780Y-123508383D01*
X121689978Y-123580011D01*
X121689979Y-123580011D01*
X121689980Y-123580012D01*
X121689982Y-123580013D01*
X121755413Y-123607115D01*
X121809089Y-123629348D01*
X121809091Y-123629348D01*
X121809096Y-123629350D01*
X121935532Y-123654499D01*
X121935536Y-123654500D01*
X121935537Y-123654500D01*
X122064464Y-123654500D01*
X122064465Y-123654499D01*
X122106612Y-123646116D01*
X122190903Y-123629350D01*
X122190906Y-123629348D01*
X122190911Y-123629348D01*
X122310022Y-123580011D01*
X122417220Y-123508383D01*
X122508383Y-123417220D01*
X122580011Y-123310022D01*
X122629348Y-123190911D01*
X122654500Y-123064463D01*
X122654500Y-122935537D01*
X122652715Y-122926563D01*
X122658939Y-122856973D01*
X122686648Y-122814689D01*
X123415805Y-122085532D01*
X125645500Y-122085532D01*
X125645500Y-122214467D01*
X125670649Y-122340903D01*
X125670652Y-122340912D01*
X125719986Y-122460017D01*
X125719987Y-122460019D01*
X125791616Y-122567219D01*
X125791619Y-122567223D01*
X125882776Y-122658380D01*
X125882780Y-122658383D01*
X125989978Y-122730011D01*
X125989979Y-122730011D01*
X125989980Y-122730012D01*
X125989982Y-122730013D01*
X126069385Y-122762902D01*
X126109089Y-122779348D01*
X126109091Y-122779348D01*
X126109096Y-122779350D01*
X126235532Y-122804499D01*
X126235536Y-122804500D01*
X126235537Y-122804500D01*
X126364464Y-122804500D01*
X126364465Y-122804499D01*
X126406612Y-122796116D01*
X126490903Y-122779350D01*
X126490906Y-122779348D01*
X126490911Y-122779348D01*
X126610022Y-122730011D01*
X126717220Y-122658383D01*
X126808383Y-122567220D01*
X126834183Y-122528608D01*
X126887793Y-122483804D01*
X126937284Y-122473500D01*
X133383430Y-122473500D01*
X133450469Y-122493185D01*
X133486528Y-122528604D01*
X133491617Y-122536220D01*
X133491619Y-122536222D01*
X133491622Y-122536226D01*
X133582776Y-122627380D01*
X133582780Y-122627383D01*
X133689978Y-122699011D01*
X133689979Y-122699011D01*
X133689980Y-122699012D01*
X133689982Y-122699013D01*
X133764819Y-122730011D01*
X133809089Y-122748348D01*
X133809091Y-122748348D01*
X133809096Y-122748350D01*
X133935532Y-122773499D01*
X133935536Y-122773500D01*
X133935537Y-122773500D01*
X134064464Y-122773500D01*
X134064465Y-122773499D01*
X134106612Y-122765116D01*
X134190903Y-122748350D01*
X134190906Y-122748348D01*
X134190911Y-122748348D01*
X134310022Y-122699011D01*
X134417220Y-122627383D01*
X134508383Y-122536220D01*
X134580011Y-122429022D01*
X134629348Y-122309911D01*
X134654500Y-122183463D01*
X134654500Y-122054537D01*
X134635516Y-121959096D01*
X134629350Y-121928096D01*
X134629347Y-121928087D01*
X134580013Y-121808982D01*
X134580012Y-121808980D01*
X134550291Y-121764500D01*
X134508383Y-121701780D01*
X134508380Y-121701776D01*
X134417223Y-121610619D01*
X134417219Y-121610616D01*
X134310019Y-121538987D01*
X134310017Y-121538986D01*
X134190912Y-121489652D01*
X134190903Y-121489649D01*
X134064467Y-121464500D01*
X134064463Y-121464500D01*
X133935537Y-121464500D01*
X133935532Y-121464500D01*
X133809096Y-121489649D01*
X133809087Y-121489652D01*
X133689982Y-121538986D01*
X133689980Y-121538987D01*
X133582780Y-121610616D01*
X133582776Y-121610619D01*
X133491623Y-121701773D01*
X133491622Y-121701773D01*
X133491617Y-121701779D01*
X133491617Y-121701780D01*
X133486529Y-121709394D01*
X133432919Y-121754196D01*
X133383430Y-121764500D01*
X126891466Y-121764500D01*
X126824427Y-121744815D01*
X126803785Y-121728181D01*
X126717223Y-121641619D01*
X126717219Y-121641616D01*
X126610019Y-121569987D01*
X126610017Y-121569986D01*
X126490912Y-121520652D01*
X126490903Y-121520649D01*
X126364467Y-121495500D01*
X126364463Y-121495500D01*
X126235537Y-121495500D01*
X126235532Y-121495500D01*
X126109096Y-121520649D01*
X126109087Y-121520652D01*
X125989982Y-121569986D01*
X125989980Y-121569987D01*
X125882780Y-121641616D01*
X125882776Y-121641619D01*
X125791619Y-121732776D01*
X125791616Y-121732780D01*
X125719987Y-121839980D01*
X125719986Y-121839982D01*
X125670652Y-121959087D01*
X125670649Y-121959096D01*
X125645500Y-122085532D01*
X123415805Y-122085532D01*
X132414689Y-113086648D01*
X132476010Y-113053165D01*
X132526563Y-113052715D01*
X132535535Y-113054499D01*
X132535536Y-113054500D01*
X132535537Y-113054500D01*
X132664464Y-113054500D01*
X132664465Y-113054499D01*
X132738446Y-113039784D01*
X132790903Y-113029350D01*
X132790906Y-113029348D01*
X132790911Y-113029348D01*
X132910022Y-112980011D01*
X133017220Y-112908383D01*
X133108383Y-112817220D01*
X133180011Y-112710022D01*
X133229348Y-112590911D01*
X133233511Y-112569986D01*
X133254499Y-112464467D01*
X133254500Y-112464464D01*
X133254500Y-112335536D01*
X133254499Y-112335532D01*
X133229350Y-112209096D01*
X133229347Y-112209087D01*
X133224736Y-112197956D01*
X133191252Y-112117117D01*
X133180013Y-112089982D01*
X133180012Y-112089980D01*
X133108383Y-111982780D01*
X133108380Y-111982776D01*
X133017223Y-111891619D01*
X133017219Y-111891616D01*
X132910019Y-111819987D01*
X132910017Y-111819986D01*
X132790912Y-111770652D01*
X132790903Y-111770649D01*
X132664467Y-111745500D01*
X132664463Y-111745500D01*
X132535537Y-111745500D01*
X132535532Y-111745500D01*
X132409096Y-111770649D01*
X132409087Y-111770652D01*
X132289982Y-111819986D01*
X132289980Y-111819987D01*
X132182780Y-111891616D01*
X132182776Y-111891619D01*
X132091619Y-111982776D01*
X132091616Y-111982780D01*
X132019987Y-112089980D01*
X132019986Y-112089982D01*
X131970652Y-112209087D01*
X131970649Y-112209096D01*
X131945500Y-112335532D01*
X131945500Y-112464468D01*
X131947286Y-112473448D01*
X131941053Y-112543039D01*
X131913348Y-112585311D01*
X122185311Y-122313348D01*
X122123988Y-122346833D01*
X122073448Y-122347286D01*
X122064468Y-122345500D01*
X122064463Y-122345500D01*
X121935537Y-122345500D01*
X121935532Y-122345500D01*
X121809096Y-122370649D01*
X121809087Y-122370652D01*
X121689982Y-122419986D01*
X121689980Y-122419987D01*
X121582780Y-122491616D01*
X121582776Y-122491619D01*
X121491619Y-122582776D01*
X121491616Y-122582780D01*
X121419987Y-122689980D01*
X121419986Y-122689982D01*
X121370652Y-122809087D01*
X121370649Y-122809096D01*
X121345500Y-122935532D01*
X116123971Y-122935532D01*
X107002510Y-113814071D01*
X117049499Y-113814071D01*
X117074497Y-113939738D01*
X117074499Y-113939744D01*
X117123533Y-114058124D01*
X117123538Y-114058133D01*
X117194723Y-114164668D01*
X117194726Y-114164672D01*
X117285327Y-114255273D01*
X117285331Y-114255276D01*
X117391866Y-114326461D01*
X117391872Y-114326464D01*
X117391873Y-114326465D01*
X117510256Y-114375501D01*
X117510260Y-114375501D01*
X117510261Y-114375502D01*
X117635928Y-114400500D01*
X117635931Y-114400500D01*
X117764071Y-114400500D01*
X117848615Y-114383682D01*
X117889744Y-114375501D01*
X118008127Y-114326465D01*
X118114669Y-114255276D01*
X118205276Y-114164669D01*
X118276465Y-114058127D01*
X118325501Y-113939744D01*
X118350500Y-113814069D01*
X118350500Y-113685931D01*
X118350500Y-113685928D01*
X118325502Y-113560261D01*
X118325501Y-113560260D01*
X118325501Y-113560256D01*
X118276465Y-113441873D01*
X118276464Y-113441872D01*
X118276461Y-113441866D01*
X118205276Y-113335331D01*
X118205273Y-113335327D01*
X118114672Y-113244726D01*
X118114668Y-113244723D01*
X118008133Y-113173538D01*
X118008124Y-113173533D01*
X117889744Y-113124499D01*
X117889738Y-113124497D01*
X117764071Y-113099500D01*
X117764069Y-113099500D01*
X117635931Y-113099500D01*
X117635929Y-113099500D01*
X117510261Y-113124497D01*
X117510255Y-113124499D01*
X117391875Y-113173533D01*
X117391866Y-113173538D01*
X117285331Y-113244723D01*
X117285327Y-113244726D01*
X117194726Y-113335327D01*
X117194723Y-113335331D01*
X117123538Y-113441866D01*
X117123533Y-113441875D01*
X117074499Y-113560255D01*
X117074497Y-113560261D01*
X117049500Y-113685928D01*
X117049500Y-113685931D01*
X117049500Y-113814069D01*
X117049500Y-113814071D01*
X117049499Y-113814071D01*
X107002510Y-113814071D01*
X106590819Y-113402380D01*
X106557334Y-113341057D01*
X106554500Y-113314699D01*
X106554500Y-110616570D01*
X106574185Y-110549531D01*
X106609614Y-110513465D01*
X106617220Y-110508383D01*
X106708383Y-110417220D01*
X106780011Y-110310022D01*
X106829348Y-110190911D01*
X106832805Y-110173535D01*
X106850626Y-110083937D01*
X106854500Y-110064463D01*
X106854500Y-109935537D01*
X106830967Y-109817226D01*
X106829350Y-109809096D01*
X106829347Y-109809087D01*
X106780013Y-109689982D01*
X106780012Y-109689980D01*
X106772860Y-109679277D01*
X106708383Y-109582780D01*
X106708380Y-109582776D01*
X106617223Y-109491619D01*
X106617219Y-109491616D01*
X106510019Y-109419987D01*
X106510017Y-109419986D01*
X106390912Y-109370652D01*
X106390903Y-109370649D01*
X106264467Y-109345500D01*
X106264463Y-109345500D01*
X106135537Y-109345500D01*
X106135532Y-109345500D01*
X106009096Y-109370649D01*
X106009087Y-109370652D01*
X105889982Y-109419986D01*
X105889980Y-109419987D01*
X105782776Y-109491619D01*
X105778660Y-109494997D01*
X105714349Y-109522307D01*
X105645482Y-109510512D01*
X105621340Y-109494997D01*
X105617223Y-109491619D01*
X105510019Y-109419987D01*
X105510017Y-109419986D01*
X105390912Y-109370652D01*
X105390903Y-109370649D01*
X105264467Y-109345500D01*
X105264463Y-109345500D01*
X105135537Y-109345500D01*
X105135532Y-109345500D01*
X105009096Y-109370649D01*
X105009087Y-109370652D01*
X104889982Y-109419986D01*
X104889980Y-109419987D01*
X104782780Y-109491616D01*
X104782776Y-109491619D01*
X104691619Y-109582776D01*
X104691616Y-109582780D01*
X104619987Y-109689980D01*
X104619986Y-109689982D01*
X104570652Y-109809087D01*
X104570649Y-109809096D01*
X104545500Y-109935532D01*
X104545500Y-110064467D01*
X104570649Y-110190903D01*
X104570652Y-110190912D01*
X104619986Y-110310017D01*
X104619987Y-110310019D01*
X104691616Y-110417219D01*
X104691619Y-110417223D01*
X104782776Y-110508380D01*
X104782780Y-110508383D01*
X104889978Y-110580011D01*
X104889979Y-110580011D01*
X104889980Y-110580012D01*
X104889982Y-110580013D01*
X104969385Y-110612902D01*
X105009089Y-110629348D01*
X105009091Y-110629348D01*
X105009096Y-110629350D01*
X105135532Y-110654499D01*
X105135536Y-110654500D01*
X105135537Y-110654500D01*
X105264464Y-110654500D01*
X105266864Y-110654022D01*
X105273430Y-110652716D01*
X105281340Y-110653423D01*
X105288784Y-110650647D01*
X105315645Y-110656490D01*
X105343021Y-110658938D01*
X105351033Y-110664188D01*
X105357057Y-110665499D01*
X105385311Y-110686650D01*
X105406802Y-110708141D01*
X105440287Y-110769464D01*
X105443121Y-110795822D01*
X105443121Y-113630950D01*
X105443121Y-113724292D01*
X105457874Y-113779350D01*
X105467280Y-113814453D01*
X105513949Y-113895287D01*
X105513951Y-113895290D01*
X118602480Y-126983819D01*
X118635965Y-127045142D01*
X118630981Y-127114834D01*
X118589109Y-127170767D01*
X118523645Y-127195184D01*
X118514799Y-127195500D01*
X107898200Y-127195500D01*
X107868759Y-127186855D01*
X107838773Y-127180332D01*
X107833757Y-127176577D01*
X107831161Y-127175815D01*
X107810519Y-127159181D01*
X107686650Y-127035312D01*
X107653165Y-126973989D01*
X107652716Y-126923430D01*
X107654500Y-126914465D01*
X107654500Y-126785536D01*
X107654499Y-126785532D01*
X107629350Y-126659096D01*
X107629347Y-126659087D01*
X107620449Y-126637606D01*
X107580011Y-126539978D01*
X107508383Y-126432780D01*
X107508380Y-126432776D01*
X107417223Y-126341619D01*
X107417219Y-126341616D01*
X107310019Y-126269987D01*
X107310017Y-126269986D01*
X107190912Y-126220652D01*
X107190903Y-126220649D01*
X107064467Y-126195500D01*
X107064463Y-126195500D01*
X106935537Y-126195500D01*
X106935532Y-126195500D01*
X106809096Y-126220649D01*
X106809087Y-126220652D01*
X106689982Y-126269986D01*
X106689980Y-126269987D01*
X106582780Y-126341616D01*
X106582776Y-126341619D01*
X106491619Y-126432776D01*
X106491616Y-126432780D01*
X106419987Y-126539980D01*
X106397580Y-126594077D01*
X106353739Y-126648480D01*
X106287444Y-126670545D01*
X106258828Y-126668241D01*
X106174464Y-126651460D01*
X106174460Y-126651460D01*
X106045534Y-126651460D01*
X106045529Y-126651460D01*
X105919093Y-126676609D01*
X105919084Y-126676612D01*
X105799979Y-126725946D01*
X105748390Y-126760417D01*
X105681712Y-126781294D01*
X105614332Y-126762809D01*
X105567643Y-126710830D01*
X105555500Y-126657314D01*
X105555500Y-124386763D01*
X105554500Y-124371507D01*
X105554500Y-124016570D01*
X105574185Y-123949531D01*
X105609614Y-123913465D01*
X105617220Y-123908383D01*
X105708383Y-123817220D01*
X105780011Y-123710022D01*
X105829348Y-123590911D01*
X105854500Y-123464463D01*
X105854500Y-123335537D01*
X105849424Y-123310017D01*
X105829350Y-123209096D01*
X105829347Y-123209087D01*
X105780013Y-123089982D01*
X105780012Y-123089980D01*
X105708383Y-122982780D01*
X105708380Y-122982776D01*
X105617223Y-122891619D01*
X105617219Y-122891616D01*
X105510019Y-122819987D01*
X105510017Y-122819986D01*
X105390912Y-122770652D01*
X105390903Y-122770649D01*
X105264467Y-122745500D01*
X105264463Y-122745500D01*
X105135537Y-122745500D01*
X105135532Y-122745500D01*
X105009096Y-122770649D01*
X105009087Y-122770652D01*
X104889982Y-122819986D01*
X104889980Y-122819987D01*
X104782780Y-122891616D01*
X104782776Y-122891619D01*
X104691619Y-122982776D01*
X104691616Y-122982780D01*
X104619987Y-123089980D01*
X104619986Y-123089982D01*
X104570652Y-123209087D01*
X104570649Y-123209096D01*
X104545500Y-123335532D01*
X104545500Y-123335536D01*
X104545500Y-123335537D01*
X104545500Y-123464463D01*
X104551964Y-123496960D01*
X104560032Y-123537523D01*
X104557012Y-123571261D01*
X104554596Y-123605047D01*
X104553905Y-123605969D01*
X104553803Y-123607115D01*
X104533024Y-123633862D01*
X104512724Y-123660980D01*
X104511646Y-123661382D01*
X104510940Y-123662291D01*
X104479001Y-123673557D01*
X104447260Y-123685397D01*
X104446134Y-123685152D01*
X104445050Y-123685535D01*
X104412077Y-123677743D01*
X104378987Y-123670545D01*
X104377774Y-123669637D01*
X104377053Y-123669467D01*
X104350733Y-123649394D01*
X104286650Y-123585311D01*
X104253165Y-123523988D01*
X104252716Y-123473431D01*
X104254500Y-123464463D01*
X104254500Y-123335537D01*
X104249424Y-123310017D01*
X104229350Y-123209096D01*
X104229347Y-123209087D01*
X104180013Y-123089982D01*
X104180012Y-123089980D01*
X104108383Y-122982780D01*
X104108380Y-122982776D01*
X104017223Y-122891619D01*
X104017219Y-122891616D01*
X103910019Y-122819987D01*
X103910017Y-122819986D01*
X103790912Y-122770652D01*
X103790903Y-122770649D01*
X103664467Y-122745500D01*
X103664463Y-122745500D01*
X103535537Y-122745500D01*
X103535532Y-122745500D01*
X103409096Y-122770649D01*
X103409087Y-122770652D01*
X103289982Y-122819986D01*
X103289980Y-122819987D01*
X103182780Y-122891616D01*
X103182776Y-122891619D01*
X103091619Y-122982776D01*
X103091616Y-122982780D01*
X103019987Y-123089980D01*
X103019986Y-123089982D01*
X102970652Y-123209087D01*
X102970649Y-123209096D01*
X102945500Y-123335532D01*
X100025500Y-123335532D01*
X100025500Y-103003246D01*
X100025670Y-102996757D01*
X100026263Y-102985434D01*
X100031856Y-102878711D01*
X101149500Y-102878711D01*
X101149500Y-103121288D01*
X101181161Y-103361785D01*
X101243947Y-103596104D01*
X101336773Y-103820205D01*
X101336776Y-103820212D01*
X101458064Y-104030289D01*
X101458066Y-104030292D01*
X101458067Y-104030293D01*
X101605733Y-104222736D01*
X101605739Y-104222743D01*
X101777256Y-104394260D01*
X101777262Y-104394265D01*
X101969711Y-104541936D01*
X102179788Y-104663224D01*
X102403900Y-104756054D01*
X102638211Y-104818838D01*
X102818586Y-104842584D01*
X102878711Y-104850500D01*
X102878712Y-104850500D01*
X103121289Y-104850500D01*
X103169388Y-104844167D01*
X103361789Y-104818838D01*
X103596100Y-104756054D01*
X103820212Y-104663224D01*
X104030289Y-104541936D01*
X104222738Y-104394265D01*
X104394265Y-104222738D01*
X104541936Y-104030289D01*
X104663224Y-103820212D01*
X104756054Y-103596100D01*
X104818838Y-103361789D01*
X104850500Y-103121288D01*
X104850500Y-102878712D01*
X104818838Y-102638211D01*
X104756054Y-102403900D01*
X104663224Y-102179788D01*
X104541936Y-101969711D01*
X104408819Y-101796229D01*
X104394266Y-101777263D01*
X104394260Y-101777256D01*
X104222743Y-101605739D01*
X104222736Y-101605733D01*
X104134561Y-101538074D01*
X122635500Y-101538074D01*
X122635500Y-101711925D01*
X122662697Y-101883639D01*
X122662697Y-101883642D01*
X122716418Y-102048978D01*
X122793368Y-102200000D01*
X122795347Y-102203884D01*
X122897535Y-102344533D01*
X123020467Y-102467465D01*
X123161116Y-102569653D01*
X123295669Y-102638211D01*
X123316021Y-102648581D01*
X123481358Y-102702302D01*
X123481359Y-102702302D01*
X123481362Y-102702303D01*
X123653074Y-102729500D01*
X123653075Y-102729500D01*
X123826925Y-102729500D01*
X123826926Y-102729500D01*
X123998638Y-102702303D01*
X123998641Y-102702302D01*
X123998642Y-102702302D01*
X124163978Y-102648581D01*
X124163978Y-102648580D01*
X124163981Y-102648580D01*
X124318884Y-102569653D01*
X124459533Y-102467465D01*
X124582465Y-102344533D01*
X124684653Y-102203884D01*
X124763580Y-102048981D01*
X124817303Y-101883638D01*
X124844500Y-101711926D01*
X124844500Y-101538074D01*
X125175500Y-101538074D01*
X125175500Y-101711925D01*
X125202697Y-101883639D01*
X125202697Y-101883642D01*
X125256418Y-102048978D01*
X125333368Y-102200000D01*
X125335347Y-102203884D01*
X125437535Y-102344533D01*
X125560467Y-102467465D01*
X125701116Y-102569653D01*
X125835669Y-102638211D01*
X125856021Y-102648581D01*
X126021358Y-102702302D01*
X126021359Y-102702302D01*
X126021362Y-102702303D01*
X126193074Y-102729500D01*
X126193075Y-102729500D01*
X126366925Y-102729500D01*
X126366926Y-102729500D01*
X126538638Y-102702303D01*
X126538641Y-102702302D01*
X126538642Y-102702302D01*
X126703978Y-102648581D01*
X126703978Y-102648580D01*
X126703981Y-102648580D01*
X126858884Y-102569653D01*
X126999533Y-102467465D01*
X127122465Y-102344533D01*
X127224653Y-102203884D01*
X127303580Y-102048981D01*
X127357303Y-101883638D01*
X127384500Y-101711926D01*
X127384500Y-101538074D01*
X127357303Y-101366362D01*
X127357302Y-101366358D01*
X127357302Y-101366357D01*
X127303581Y-101201021D01*
X127224652Y-101046115D01*
X127201840Y-101014717D01*
X127122465Y-100905467D01*
X126999533Y-100782535D01*
X126858884Y-100680347D01*
X126703978Y-100601418D01*
X126538641Y-100547697D01*
X126409854Y-100527299D01*
X126366926Y-100520500D01*
X126193074Y-100520500D01*
X126135836Y-100529565D01*
X126021360Y-100547697D01*
X126021357Y-100547697D01*
X125856021Y-100601418D01*
X125701115Y-100680347D01*
X125620869Y-100738649D01*
X125560467Y-100782535D01*
X125560465Y-100782537D01*
X125560464Y-100782537D01*
X125437537Y-100905464D01*
X125437537Y-100905465D01*
X125437535Y-100905467D01*
X125393649Y-100965869D01*
X125335347Y-101046115D01*
X125256418Y-101201021D01*
X125202697Y-101366357D01*
X125202697Y-101366360D01*
X125175500Y-101538074D01*
X124844500Y-101538074D01*
X124817303Y-101366362D01*
X124817302Y-101366358D01*
X124817302Y-101366357D01*
X124763581Y-101201021D01*
X124684652Y-101046115D01*
X124661840Y-101014717D01*
X124582465Y-100905467D01*
X124459533Y-100782535D01*
X124318884Y-100680347D01*
X124163978Y-100601418D01*
X123998641Y-100547697D01*
X123869854Y-100527299D01*
X123826926Y-100520500D01*
X123653074Y-100520500D01*
X123595836Y-100529565D01*
X123481360Y-100547697D01*
X123481357Y-100547697D01*
X123316021Y-100601418D01*
X123161115Y-100680347D01*
X123080869Y-100738649D01*
X123020467Y-100782535D01*
X123020465Y-100782537D01*
X123020464Y-100782537D01*
X122897537Y-100905464D01*
X122897537Y-100905465D01*
X122897535Y-100905467D01*
X122853649Y-100965869D01*
X122795347Y-101046115D01*
X122716418Y-101201021D01*
X122662697Y-101366357D01*
X122662697Y-101366360D01*
X122635500Y-101538074D01*
X104134561Y-101538074D01*
X104030293Y-101458067D01*
X104030292Y-101458066D01*
X104030289Y-101458064D01*
X103820212Y-101336776D01*
X103820205Y-101336773D01*
X103596104Y-101243947D01*
X103361785Y-101181161D01*
X103121289Y-101149500D01*
X103121288Y-101149500D01*
X102878712Y-101149500D01*
X102878711Y-101149500D01*
X102638214Y-101181161D01*
X102403895Y-101243947D01*
X102179794Y-101336773D01*
X102179785Y-101336777D01*
X101969706Y-101458067D01*
X101777263Y-101605733D01*
X101777256Y-101605739D01*
X101605739Y-101777256D01*
X101605733Y-101777263D01*
X101458067Y-101969706D01*
X101336777Y-102179785D01*
X101336773Y-102179794D01*
X101243947Y-102403895D01*
X101181161Y-102638214D01*
X101149500Y-102878711D01*
X100031856Y-102878711D01*
X100041455Y-102695564D01*
X100042812Y-102682659D01*
X100048209Y-102648581D01*
X100089485Y-102387973D01*
X100092175Y-102375312D01*
X100169403Y-102087092D01*
X100173404Y-102074777D01*
X100280336Y-101796211D01*
X100285600Y-101784389D01*
X100421069Y-101518514D01*
X100427530Y-101507324D01*
X100590050Y-101257066D01*
X100597659Y-101246594D01*
X100785437Y-101014707D01*
X100794104Y-101005082D01*
X101005082Y-100794104D01*
X101014707Y-100785437D01*
X101246594Y-100597659D01*
X101257066Y-100590050D01*
X101507324Y-100427530D01*
X101518514Y-100421069D01*
X101784389Y-100285600D01*
X101796211Y-100280336D01*
X102074777Y-100173404D01*
X102087092Y-100169403D01*
X102375312Y-100092175D01*
X102387973Y-100089485D01*
X102682659Y-100042812D01*
X102695564Y-100041455D01*
X102996756Y-100025669D01*
X103003246Y-100025500D01*
X103059210Y-100025500D01*
X103148925Y-100005023D01*
X103157311Y-100003109D01*
X103184904Y-100000000D01*
X105315096Y-100000000D01*
X105342689Y-100003109D01*
G37*
G04 #@! TD.AperFunction*
D16*
X94304819Y-103571428D02*
X94304819Y-104142856D01*
X94304819Y-103857142D02*
X93304819Y-103857142D01*
X93304819Y-103857142D02*
X93447676Y-103952380D01*
X93447676Y-103952380D02*
X93542914Y-104047618D01*
X93542914Y-104047618D02*
X93590533Y-104142856D01*
X93304819Y-102952380D02*
X93304819Y-102857142D01*
X93304819Y-102857142D02*
X93352438Y-102761904D01*
X93352438Y-102761904D02*
X93400057Y-102714285D01*
X93400057Y-102714285D02*
X93495295Y-102666666D01*
X93495295Y-102666666D02*
X93685771Y-102619047D01*
X93685771Y-102619047D02*
X93923866Y-102619047D01*
X93923866Y-102619047D02*
X94114342Y-102666666D01*
X94114342Y-102666666D02*
X94209580Y-102714285D01*
X94209580Y-102714285D02*
X94257200Y-102761904D01*
X94257200Y-102761904D02*
X94304819Y-102857142D01*
X94304819Y-102857142D02*
X94304819Y-102952380D01*
X94304819Y-102952380D02*
X94257200Y-103047618D01*
X94257200Y-103047618D02*
X94209580Y-103095237D01*
X94209580Y-103095237D02*
X94114342Y-103142856D01*
X94114342Y-103142856D02*
X93923866Y-103190475D01*
X93923866Y-103190475D02*
X93685771Y-103190475D01*
X93685771Y-103190475D02*
X93495295Y-103142856D01*
X93495295Y-103142856D02*
X93400057Y-103095237D01*
X93400057Y-103095237D02*
X93352438Y-103047618D01*
X93352438Y-103047618D02*
X93304819Y-102952380D01*
X93304819Y-101999999D02*
X93304819Y-101904761D01*
X93304819Y-101904761D02*
X93352438Y-101809523D01*
X93352438Y-101809523D02*
X93400057Y-101761904D01*
X93400057Y-101761904D02*
X93495295Y-101714285D01*
X93495295Y-101714285D02*
X93685771Y-101666666D01*
X93685771Y-101666666D02*
X93923866Y-101666666D01*
X93923866Y-101666666D02*
X94114342Y-101714285D01*
X94114342Y-101714285D02*
X94209580Y-101761904D01*
X94209580Y-101761904D02*
X94257200Y-101809523D01*
X94257200Y-101809523D02*
X94304819Y-101904761D01*
X94304819Y-101904761D02*
X94304819Y-101999999D01*
X94304819Y-101999999D02*
X94257200Y-102095237D01*
X94257200Y-102095237D02*
X94209580Y-102142856D01*
X94209580Y-102142856D02*
X94114342Y-102190475D01*
X94114342Y-102190475D02*
X93923866Y-102238094D01*
X93923866Y-102238094D02*
X93685771Y-102238094D01*
X93685771Y-102238094D02*
X93495295Y-102190475D01*
X93495295Y-102190475D02*
X93400057Y-102142856D01*
X93400057Y-102142856D02*
X93352438Y-102095237D01*
X93352438Y-102095237D02*
X93304819Y-101999999D01*
X94209580Y-101238094D02*
X94257200Y-101190475D01*
X94257200Y-101190475D02*
X94304819Y-101238094D01*
X94304819Y-101238094D02*
X94257200Y-101285713D01*
X94257200Y-101285713D02*
X94209580Y-101238094D01*
X94209580Y-101238094D02*
X94304819Y-101238094D01*
X93304819Y-100571428D02*
X93304819Y-100476190D01*
X93304819Y-100476190D02*
X93352438Y-100380952D01*
X93352438Y-100380952D02*
X93400057Y-100333333D01*
X93400057Y-100333333D02*
X93495295Y-100285714D01*
X93495295Y-100285714D02*
X93685771Y-100238095D01*
X93685771Y-100238095D02*
X93923866Y-100238095D01*
X93923866Y-100238095D02*
X94114342Y-100285714D01*
X94114342Y-100285714D02*
X94209580Y-100333333D01*
X94209580Y-100333333D02*
X94257200Y-100380952D01*
X94257200Y-100380952D02*
X94304819Y-100476190D01*
X94304819Y-100476190D02*
X94304819Y-100571428D01*
X94304819Y-100571428D02*
X94257200Y-100666666D01*
X94257200Y-100666666D02*
X94209580Y-100714285D01*
X94209580Y-100714285D02*
X94114342Y-100761904D01*
X94114342Y-100761904D02*
X93923866Y-100809523D01*
X93923866Y-100809523D02*
X93685771Y-100809523D01*
X93685771Y-100809523D02*
X93495295Y-100761904D01*
X93495295Y-100761904D02*
X93400057Y-100714285D01*
X93400057Y-100714285D02*
X93352438Y-100666666D01*
X93352438Y-100666666D02*
X93304819Y-100571428D01*
X93304819Y-99619047D02*
X93304819Y-99523809D01*
X93304819Y-99523809D02*
X93352438Y-99428571D01*
X93352438Y-99428571D02*
X93400057Y-99380952D01*
X93400057Y-99380952D02*
X93495295Y-99333333D01*
X93495295Y-99333333D02*
X93685771Y-99285714D01*
X93685771Y-99285714D02*
X93923866Y-99285714D01*
X93923866Y-99285714D02*
X94114342Y-99333333D01*
X94114342Y-99333333D02*
X94209580Y-99380952D01*
X94209580Y-99380952D02*
X94257200Y-99428571D01*
X94257200Y-99428571D02*
X94304819Y-99523809D01*
X94304819Y-99523809D02*
X94304819Y-99619047D01*
X94304819Y-99619047D02*
X94257200Y-99714285D01*
X94257200Y-99714285D02*
X94209580Y-99761904D01*
X94209580Y-99761904D02*
X94114342Y-99809523D01*
X94114342Y-99809523D02*
X93923866Y-99857142D01*
X93923866Y-99857142D02*
X93685771Y-99857142D01*
X93685771Y-99857142D02*
X93495295Y-99809523D01*
X93495295Y-99809523D02*
X93400057Y-99761904D01*
X93400057Y-99761904D02*
X93352438Y-99714285D01*
X93352438Y-99714285D02*
X93304819Y-99619047D01*
X94304819Y-98095237D02*
X93638152Y-98095237D01*
X93733390Y-98095237D02*
X93685771Y-98047618D01*
X93685771Y-98047618D02*
X93638152Y-97952380D01*
X93638152Y-97952380D02*
X93638152Y-97809523D01*
X93638152Y-97809523D02*
X93685771Y-97714285D01*
X93685771Y-97714285D02*
X93781009Y-97666666D01*
X93781009Y-97666666D02*
X94304819Y-97666666D01*
X93781009Y-97666666D02*
X93685771Y-97619047D01*
X93685771Y-97619047D02*
X93638152Y-97523809D01*
X93638152Y-97523809D02*
X93638152Y-97380952D01*
X93638152Y-97380952D02*
X93685771Y-97285713D01*
X93685771Y-97285713D02*
X93781009Y-97238094D01*
X93781009Y-97238094D02*
X94304819Y-97238094D01*
X94304819Y-96761904D02*
X93638152Y-96761904D01*
X93733390Y-96761904D02*
X93685771Y-96714285D01*
X93685771Y-96714285D02*
X93638152Y-96619047D01*
X93638152Y-96619047D02*
X93638152Y-96476190D01*
X93638152Y-96476190D02*
X93685771Y-96380952D01*
X93685771Y-96380952D02*
X93781009Y-96333333D01*
X93781009Y-96333333D02*
X94304819Y-96333333D01*
X93781009Y-96333333D02*
X93685771Y-96285714D01*
X93685771Y-96285714D02*
X93638152Y-96190476D01*
X93638152Y-96190476D02*
X93638152Y-96047619D01*
X93638152Y-96047619D02*
X93685771Y-95952380D01*
X93685771Y-95952380D02*
X93781009Y-95904761D01*
X93781009Y-95904761D02*
X94304819Y-95904761D01*
D17*
X99500001Y-50000000D02*
X94413580Y-50000000D01*
X94413580Y-150000000D02*
X99500000Y-150000000D01*
X95000000Y-50000000D02*
X95000000Y-150000000D01*
X95000000Y-50000000D02*
X95586421Y-51126504D01*
X95000000Y-50000000D02*
X94413579Y-51126504D01*
X95000000Y-150000000D02*
X94413579Y-148873496D01*
X95000000Y-150000000D02*
X95586421Y-148873496D01*
D16*
X121857143Y-43304819D02*
X121380953Y-43304819D01*
X121380953Y-43304819D02*
X121333334Y-43781009D01*
X121333334Y-43781009D02*
X121380953Y-43733390D01*
X121380953Y-43733390D02*
X121476191Y-43685771D01*
X121476191Y-43685771D02*
X121714286Y-43685771D01*
X121714286Y-43685771D02*
X121809524Y-43733390D01*
X121809524Y-43733390D02*
X121857143Y-43781009D01*
X121857143Y-43781009D02*
X121904762Y-43876247D01*
X121904762Y-43876247D02*
X121904762Y-44114342D01*
X121904762Y-44114342D02*
X121857143Y-44209580D01*
X121857143Y-44209580D02*
X121809524Y-44257200D01*
X121809524Y-44257200D02*
X121714286Y-44304819D01*
X121714286Y-44304819D02*
X121476191Y-44304819D01*
X121476191Y-44304819D02*
X121380953Y-44257200D01*
X121380953Y-44257200D02*
X121333334Y-44209580D01*
X122523810Y-43304819D02*
X122619048Y-43304819D01*
X122619048Y-43304819D02*
X122714286Y-43352438D01*
X122714286Y-43352438D02*
X122761905Y-43400057D01*
X122761905Y-43400057D02*
X122809524Y-43495295D01*
X122809524Y-43495295D02*
X122857143Y-43685771D01*
X122857143Y-43685771D02*
X122857143Y-43923866D01*
X122857143Y-43923866D02*
X122809524Y-44114342D01*
X122809524Y-44114342D02*
X122761905Y-44209580D01*
X122761905Y-44209580D02*
X122714286Y-44257200D01*
X122714286Y-44257200D02*
X122619048Y-44304819D01*
X122619048Y-44304819D02*
X122523810Y-44304819D01*
X122523810Y-44304819D02*
X122428572Y-44257200D01*
X122428572Y-44257200D02*
X122380953Y-44209580D01*
X122380953Y-44209580D02*
X122333334Y-44114342D01*
X122333334Y-44114342D02*
X122285715Y-43923866D01*
X122285715Y-43923866D02*
X122285715Y-43685771D01*
X122285715Y-43685771D02*
X122333334Y-43495295D01*
X122333334Y-43495295D02*
X122380953Y-43400057D01*
X122380953Y-43400057D02*
X122428572Y-43352438D01*
X122428572Y-43352438D02*
X122523810Y-43304819D01*
X123285715Y-44209580D02*
X123333334Y-44257200D01*
X123333334Y-44257200D02*
X123285715Y-44304819D01*
X123285715Y-44304819D02*
X123238096Y-44257200D01*
X123238096Y-44257200D02*
X123285715Y-44209580D01*
X123285715Y-44209580D02*
X123285715Y-44304819D01*
X123952381Y-43304819D02*
X124047619Y-43304819D01*
X124047619Y-43304819D02*
X124142857Y-43352438D01*
X124142857Y-43352438D02*
X124190476Y-43400057D01*
X124190476Y-43400057D02*
X124238095Y-43495295D01*
X124238095Y-43495295D02*
X124285714Y-43685771D01*
X124285714Y-43685771D02*
X124285714Y-43923866D01*
X124285714Y-43923866D02*
X124238095Y-44114342D01*
X124238095Y-44114342D02*
X124190476Y-44209580D01*
X124190476Y-44209580D02*
X124142857Y-44257200D01*
X124142857Y-44257200D02*
X124047619Y-44304819D01*
X124047619Y-44304819D02*
X123952381Y-44304819D01*
X123952381Y-44304819D02*
X123857143Y-44257200D01*
X123857143Y-44257200D02*
X123809524Y-44209580D01*
X123809524Y-44209580D02*
X123761905Y-44114342D01*
X123761905Y-44114342D02*
X123714286Y-43923866D01*
X123714286Y-43923866D02*
X123714286Y-43685771D01*
X123714286Y-43685771D02*
X123761905Y-43495295D01*
X123761905Y-43495295D02*
X123809524Y-43400057D01*
X123809524Y-43400057D02*
X123857143Y-43352438D01*
X123857143Y-43352438D02*
X123952381Y-43304819D01*
X124904762Y-43304819D02*
X125000000Y-43304819D01*
X125000000Y-43304819D02*
X125095238Y-43352438D01*
X125095238Y-43352438D02*
X125142857Y-43400057D01*
X125142857Y-43400057D02*
X125190476Y-43495295D01*
X125190476Y-43495295D02*
X125238095Y-43685771D01*
X125238095Y-43685771D02*
X125238095Y-43923866D01*
X125238095Y-43923866D02*
X125190476Y-44114342D01*
X125190476Y-44114342D02*
X125142857Y-44209580D01*
X125142857Y-44209580D02*
X125095238Y-44257200D01*
X125095238Y-44257200D02*
X125000000Y-44304819D01*
X125000000Y-44304819D02*
X124904762Y-44304819D01*
X124904762Y-44304819D02*
X124809524Y-44257200D01*
X124809524Y-44257200D02*
X124761905Y-44209580D01*
X124761905Y-44209580D02*
X124714286Y-44114342D01*
X124714286Y-44114342D02*
X124666667Y-43923866D01*
X124666667Y-43923866D02*
X124666667Y-43685771D01*
X124666667Y-43685771D02*
X124714286Y-43495295D01*
X124714286Y-43495295D02*
X124761905Y-43400057D01*
X124761905Y-43400057D02*
X124809524Y-43352438D01*
X124809524Y-43352438D02*
X124904762Y-43304819D01*
X126428572Y-44304819D02*
X126428572Y-43638152D01*
X126428572Y-43733390D02*
X126476191Y-43685771D01*
X126476191Y-43685771D02*
X126571429Y-43638152D01*
X126571429Y-43638152D02*
X126714286Y-43638152D01*
X126714286Y-43638152D02*
X126809524Y-43685771D01*
X126809524Y-43685771D02*
X126857143Y-43781009D01*
X126857143Y-43781009D02*
X126857143Y-44304819D01*
X126857143Y-43781009D02*
X126904762Y-43685771D01*
X126904762Y-43685771D02*
X127000000Y-43638152D01*
X127000000Y-43638152D02*
X127142857Y-43638152D01*
X127142857Y-43638152D02*
X127238096Y-43685771D01*
X127238096Y-43685771D02*
X127285715Y-43781009D01*
X127285715Y-43781009D02*
X127285715Y-44304819D01*
X127761905Y-44304819D02*
X127761905Y-43638152D01*
X127761905Y-43733390D02*
X127809524Y-43685771D01*
X127809524Y-43685771D02*
X127904762Y-43638152D01*
X127904762Y-43638152D02*
X128047619Y-43638152D01*
X128047619Y-43638152D02*
X128142857Y-43685771D01*
X128142857Y-43685771D02*
X128190476Y-43781009D01*
X128190476Y-43781009D02*
X128190476Y-44304819D01*
X128190476Y-43781009D02*
X128238095Y-43685771D01*
X128238095Y-43685771D02*
X128333333Y-43638152D01*
X128333333Y-43638152D02*
X128476190Y-43638152D01*
X128476190Y-43638152D02*
X128571429Y-43685771D01*
X128571429Y-43685771D02*
X128619048Y-43781009D01*
X128619048Y-43781009D02*
X128619048Y-44304819D01*
D17*
X100000000Y-49499999D02*
X100000000Y-44413580D01*
X150000000Y-44413580D02*
X150000000Y-49499999D01*
X100000000Y-45000000D02*
X150000000Y-45000000D01*
X100000000Y-45000000D02*
X101126504Y-44413579D01*
X100000000Y-45000000D02*
X101126504Y-45586421D01*
X150000000Y-45000000D02*
X148873496Y-45586421D01*
X150000000Y-45000000D02*
X148873496Y-44413579D01*
M02*
