M48
; DRILL file KiCad 10.0.1 date 2026-05-28T10:59:34
; FORMAT={-:-/ absolute / metric / decimal}
; #@! TF.CreationDate,2026-05-28T10:59:34+09:00
; #@! TF.GenerationSoftware,Kicad,Pcbnew,10.0.1
; #@! TF.FileFunction,Plated,1,2,PTH
FMAT,2
METRIC
; #@! TA.AperFunction,Plated,PTH,ViaDrill
T1C0.300
; #@! TA.AperFunction,Plated,PTH,ComponentDrill
T2C0.600
; #@! TA.AperFunction,Plated,PTH,ComponentDrill
T3C0.700
; #@! TA.AperFunction,Plated,PTH,ComponentDrill
T4C0.900
%
G90
G05
T1
X103.4Y-135.4
X103.6Y-123.4
X105.0Y-106.0
X105.2Y-110.0
X105.2Y-123.4
X106.11Y-127.306
X106.2Y-110.0
X106.302Y-136.27
X106.319Y-135.27
X107.0Y-126.85
X109.0Y-145.0
X109.7Y-121.4
X110.15Y-113.15
X112.45Y-109.95
X113.0Y-101.0
X113.0Y-106.0
X113.0Y-126.0
X113.0Y-131.0
X113.0Y-140.0
X114.2Y-116.05
X115.0Y-146.0
X118.65Y-110.25
X119.0Y-131.0
X122.0Y-121.5
X122.7Y-138.7
X123.3Y-121.7
X124.325Y-144.375
X125.0Y-84.1
X125.0Y-131.0
X125.0Y-146.0
X126.15Y-122.1
X128.65Y-137.75
X128.683Y-136.1
X129.0Y-125.0
X129.4Y-107.5
X131.0Y-111.0
X131.3Y-131.0
X132.0Y-121.0
X132.3Y-126.449
X132.6Y-112.4
X133.393Y-130.4
X133.455Y-126.85
X134.0Y-117.17
X134.0Y-122.119
X134.08Y-109.42
X134.35Y-111.4
X135.0Y-146.0
X135.05Y-127.4
X135.15Y-126.25
X135.225Y-109.4
X135.7Y-105.45
X136.799Y-110.664
X136.808Y-111.69
X137.93Y-127.62
X138.65Y-101.3
X139.0Y-117.17
X139.05Y-123.5
X139.45Y-127.45
X139.55Y-112.05
X139.55Y-119.8
X140.6Y-131.8
X141.3Y-106.1
X141.3Y-126.2
X142.5Y-112.0
X142.5Y-121.0
X147.0Y-140.0
T3
X137.6Y-147.6
X140.2Y-147.6
X142.8Y-147.6
T4
X123.74Y-97.815
X123.74Y-101.625
X126.28Y-97.815
X126.28Y-101.625
T2
G00X103.12Y-130.9
M15
G01X102.32Y-130.9
M16
G05
G00X103.12Y-139.54
M15
G01X102.32Y-139.54
M16
G05
G00X107.45Y-130.9
M15
G01X106.35Y-130.9
M16
G05
G00X107.45Y-139.54
M15
G01X106.35Y-139.54
M16
G05
M30
